<svg width="22" height="14" viewBox="0 0 22 14" fill="none" xmlns="http://www.w3.org/2000/svg">
<g clip-path="url(#clip0_70_28818)">
<path fill-rule="evenodd" clip-rule="evenodd" d="M0.467989 1.55599C0.337632 1.58157 0.0712397 1.84306 0.0297978 1.98616C0.0037192 2.07624 -0.00476078 3.35757 0.00247736 6.11122L0.0130152 10.1056L0.109843 10.2325C0.269402 10.4417 0.428818 10.5183 0.742967 10.5364L1.01876 10.5524L1.03036 11.0063C1.04158 11.4449 1.04559 11.4654 1.14841 11.6113C1.20695 11.6943 1.32521 11.7994 1.41122 11.8448C1.55009 11.9181 1.61587 11.9274 1.99893 11.9274H2.43023L2.5305 12.1846C2.64124 12.4687 2.70922 12.5724 2.92793 12.7912C3.13993 13.0031 3.24673 13.0737 3.51869 13.1813C4.14589 13.4296 4.81864 13.2946 5.3168 12.8205L5.5283 12.6192L5.65369 12.7564C5.91171 13.0388 6.36778 13.2637 6.75598 13.3C7.5382 13.373 8.32002 12.8399 8.54785 12.0781L8.59294 11.9274H12.6321C16.4798 11.9274 16.6714 11.9303 16.6714 11.9904C16.6714 12.0251 16.7274 12.1705 16.7959 12.3134C17.1947 13.1455 18.153 13.5189 18.9905 13.1684C19.5688 12.9264 19.9251 12.4667 20.047 11.8052L20.0898 11.5725L20.8199 11.5723C21.2215 11.5722 21.6065 11.5565 21.6755 11.5373C21.8178 11.4978 22.0417 11.2848 22.0979 11.1356C22.1223 11.0707 22.1355 10.4794 22.1355 9.44769C22.1355 8.07727 22.1276 7.83656 22.078 7.69105C22.0365 7.56914 21.9361 7.43375 21.7157 7.20209L21.4108 6.8817L20.9785 5.5833L20.5463 4.28494L20.649 4.189C20.8092 4.03931 20.7747 3.74996 20.5865 3.66416C20.5272 3.63716 19.9984 3.62478 18.905 3.62478H17.31V2.88071C17.31 2.17779 17.3055 2.1262 17.2271 1.94894C17.1673 1.81379 17.1002 1.73158 16.9876 1.65519L16.831 1.54914L8.68814 1.54499C4.20954 1.54272 0.51046 1.54765 0.467989 1.55599ZM16.6272 6.02862L16.6362 9.83397H16.3212C15.9235 9.83397 15.8076 9.85749 15.6961 9.96078C15.5689 10.0788 15.57 10.3191 15.6984 10.4398C15.7863 10.5225 15.8125 10.5263 16.3679 10.5371L16.946 10.5482L16.8259 10.7854C16.7598 10.9159 16.693 11.0705 16.6774 11.129L16.6491 11.2355H12.6287H8.60827L8.50775 10.9738C8.45247 10.8299 8.38265 10.6849 8.35256 10.6517C8.32247 10.6184 8.29785 10.5805 8.29785 10.5674C8.29785 10.5543 9.70052 10.5436 11.4149 10.5436C13.6047 10.5436 14.5655 10.5319 14.6447 10.5043C14.8728 10.4248 14.922 10.1136 14.7343 9.93722L14.6432 9.85171L7.63861 9.84241L0.633934 9.83312V6.04296C0.633934 3.95841 0.644614 2.24215 0.657671 2.2291C0.670728 2.21608 4.26716 2.20941 8.64978 2.21434L16.6182 2.22328L16.6272 6.02862ZM19.9407 4.60051C20.0924 5.04842 20.1813 5.00361 19.1165 5.01575L18.1908 5.02628L18.1038 5.12755L18.0167 5.22881L18.027 6.28217L18.0374 7.33557L18.1524 7.48065C18.374 7.76035 18.3531 7.75698 19.9469 7.76872L21.3597 7.77915L21.4275 7.92839C21.4798 8.0437 21.4954 8.16036 21.496 8.44134L21.4968 8.80502H21.3416C21.1004 8.80502 20.9733 8.84142 20.8764 8.93839C20.7529 9.06183 20.7569 9.23125 20.8866 9.37641C20.9763 9.47685 21.0108 9.48941 21.2421 9.50595L21.4983 9.52429L21.4887 10.2025L21.4791 10.8807L20.712 10.8902L19.9449 10.8997L19.7993 10.6764C19.5484 10.2912 19.2648 10.0748 18.8357 9.94109C18.6122 9.8714 18.4689 9.85544 17.9398 9.84128L17.31 9.82443V7.06123V4.29803L18.5773 4.30733L19.8446 4.31666L19.9407 4.60051ZM20.5207 6.3305C20.6376 6.68648 20.7386 6.99772 20.7451 7.02209C20.7543 7.05683 20.5332 7.06645 19.7253 7.06645H18.6938V6.37456V5.68268L19.501 5.68297L20.3082 5.68325L20.5207 6.3305ZM1.64514 8.47551C1.60612 8.48491 1.53029 8.53394 1.47661 8.58447C1.30243 8.74853 1.36946 9.0415 1.59955 9.12169C1.67612 9.14837 3.78955 9.15983 8.64134 9.15983C14.4479 9.15983 15.5927 9.15188 15.6907 9.11097C15.765 9.07989 15.8298 9.01532 15.8686 8.93357C15.9252 8.81417 15.9255 8.79636 15.872 8.68357C15.7521 8.43101 16.3422 8.44975 8.6473 8.45432C4.83514 8.45659 1.68417 8.46614 1.64514 8.47551ZM2.66292 10.6986C2.60881 10.7839 2.53384 10.9441 2.49626 11.0546L2.428 11.2555L2.07205 11.2455L1.71611 11.2355L1.70596 10.8895L1.69581 10.5436H2.22852H2.76124L2.66292 10.6986ZM4.57248 10.6355C4.81077 10.7654 4.91022 10.8574 5.03359 11.0621C5.14979 11.255 5.15777 11.2877 5.15759 11.5712C5.15738 11.9161 5.11023 12.0432 4.88936 12.2941C4.62105 12.5989 4.09639 12.7088 3.7155 12.5399C3.5326 12.4588 3.29367 12.2382 3.20684 12.0703C3.05346 11.7737 3.06914 11.3118 3.24172 11.0422C3.37091 10.8405 3.61768 10.6427 3.82418 10.5754C3.98179 10.5241 4.43488 10.5604 4.57248 10.6355ZM7.20439 10.5803C7.421 10.6404 7.65507 10.8284 7.79536 11.055C7.92004 11.2563 7.9253 11.2778 7.9253 11.5872C7.9253 11.8792 7.91557 11.9262 7.82226 12.0849C7.70084 12.2915 7.58468 12.406 7.40135 12.4997C6.77979 12.8175 6.01081 12.4541 5.89117 11.7859C5.81037 11.3349 5.98235 10.9364 6.36246 10.694C6.4396 10.6448 6.54338 10.5922 6.59309 10.5771C6.72568 10.5369 7.05423 10.5386 7.20439 10.5803ZM18.8215 10.6494C19.2492 10.9051 19.444 11.3003 19.3691 11.7602C19.2231 12.6575 17.999 12.9313 17.4954 12.1792C17.1044 11.5952 17.3493 10.8384 18.0089 10.5927C18.2163 10.5155 18.6478 10.5456 18.8215 10.6494ZM3.9467 11.3161C3.76713 11.4616 3.74875 11.6297 3.89457 11.7929C4.10455 12.0279 4.46589 11.8968 4.46589 11.5856C4.46589 11.3262 4.14188 11.158 3.9467 11.3161ZM6.683 11.3601C6.4722 11.5802 6.60927 11.908 6.9121 11.908C7.11079 11.908 7.23341 11.7869 7.23341 11.5907C7.23341 11.2812 6.89457 11.1393 6.683 11.3601ZM18.115 11.3527C17.955 11.5198 17.9939 11.7691 18.1964 11.8738C18.3531 11.9549 18.4406 11.9393 18.5732 11.8067C18.7252 11.6547 18.728 11.543 18.5837 11.3786C18.4387 11.2135 18.258 11.2035 18.115 11.3527Z" fill="white"/>
</g>
<defs>
<clipPath id="clip0_70_28818">
<rect width="22" height="14" fill="white"/>
</clipPath>
</defs>
</svg>
