<svg width="49" height="41" viewBox="0 0 49 41" fill="none" xmlns="http://www.w3.org/2000/svg">
<g clip-path="url(#clip0_70_26004)">
<path fill-rule="evenodd" clip-rule="evenodd" d="M24.1891 0.00256348L24.772 0.399826L48.2512 16.3998L47.0853 18.0416L45.9377 17.2595V39V41L43.896 41.0005L40.8335 41L38.7918 41.0005V20.0005H10.2085V41.0005H8.16679L5.10429 41L3.06262 41.0005V39V16.8356L1.29287 18.0416L0.126953 16.3998L23.6061 0.399826L24.1891 0.00256348ZM40.8335 39H43.896V15.8682L24.1891 2.4389L5.10429 15.4443V39H8.16679V19.0005V18.0005H9.18762H39.8127H40.8335V19.0005V39ZM30.6252 24.0005V23.0005H29.6043L19.396 23.0006H18.3752V24.0006V31.0005H14.2918H13.271V32.0005V40.0005V41.0005H14.2918H23.4793H24.5002H25.521H34.7085H35.7293V40.0005V32.0005V31.0005H34.7085H30.6252V24.0005ZM29.6043 33.0005H25.521V39.0005H33.6877V33.0005H29.6043ZM18.3752 33.0005H19.396H23.4793V39.0005H15.3127V33.0005H18.3752ZM28.5835 31.0005V25.0006H20.4168V31.0005H23.4793H24.5002H25.521H28.5835Z" fill="#2F2FC0"/>
</g>
<defs>
<clipPath id="clip0_70_26004">
<rect width="49" height="41" fill="white"/>
</clipPath>
</defs>
</svg>
