<svg width="36" height="36" viewBox="0 0 36 36" fill="none" xmlns="http://www.w3.org/2000/svg">
<path fill-rule="evenodd" clip-rule="evenodd" d="M9.5002 6.71373V13.4275L5.67758 13.4491L1.85496 13.4707L1.71056 13.6551C1.57085 13.8334 1.56616 14.0626 1.56616 20.7313C1.56616 27.5854 1.56699 27.6243 1.7228 27.8289L1.87937 28.0347H17.9343H33.9892L34.1747 27.843L34.3602 27.6514V20.7454C34.3602 14.0629 34.3555 13.8334 34.2158 13.6551L34.0714 13.4707L30.2487 13.4491L26.4261 13.4275V6.71373V0H17.9632H9.5002V6.71373ZM28.3152 1.48373V1.95228H27.8618H27.4084V2.49892V3.04555H27.8618H28.3152V3.55315V4.06074H28.8441H29.3731V3.55315V3.04555H29.8677H30.3622L30.34 2.51844L30.3176 1.99132L29.8453 1.96805L29.3731 1.94486V1.47998V1.01518H28.8441H28.3152V1.48373ZM14.7895 4.49024C14.7895 6.35857 14.8091 7.8872 14.8331 7.8872C14.857 7.8872 15.2796 7.67479 15.7724 7.41522L16.6683 6.94316L17.3537 7.29894L18.0391 7.65472L18.549 7.3907C19.3721 6.96456 19.3111 6.96081 20.1885 7.49081C20.6205 7.75179 20.9936 7.96529 21.0175 7.96529C21.0416 7.96529 21.0612 6.41909 21.0612 4.52928V1.09328H23.2147H25.3683V7.26247V13.4317H17.9632H10.5581V7.26247V1.09328H12.6738H14.7895V4.49024ZM19.9278 3.59719V6.1011L19.6379 5.93274L19.348 5.76437L18.6556 6.12375L17.9632 6.48312L17.2659 6.12117L16.5686 5.7593L16.2157 5.96421C16.0217 6.07697 15.8424 6.1692 15.8174 6.1692C15.7923 6.1692 15.7719 5.02711 15.7719 3.63124V1.09328H17.8498H19.9278V3.59719ZM6.02433 6.83297V7.73813L6.53438 7.71509L7.04442 7.69197V6.83297V5.97397L6.53438 5.95085L6.02433 5.92782V6.83297ZM6.02433 10.1945V11.955L6.53438 11.932L7.04442 11.9089L7.06475 10.1714L7.08508 8.43384H6.5547H6.02433V10.1945ZM6.77995 17.961C6.77995 19.8508 6.79658 21.397 6.81698 21.397C6.83731 21.397 7.27904 21.1782 7.79861 20.9107L8.74329 20.4244L9.3873 20.7545C9.74154 20.9361 10.0826 21.0846 10.1453 21.0846C10.2079 21.0846 10.5258 20.9461 10.8518 20.7767L11.4443 20.4688L12.2216 20.9329C12.6491 21.1881 13.0277 21.397 13.063 21.397C13.0983 21.397 13.1272 19.8508 13.1272 17.961V14.5249H15.2429H17.3587V20.7332V26.9414H9.99135H2.62403V20.7332V14.5249H4.70199H6.77995V17.961ZM12.0693 17.0679V19.6109L11.7643 19.4337L11.4593 19.2566L10.8187 19.5849C10.4663 19.7655 10.128 19.9132 10.0669 19.9132C10.0058 19.9132 9.66673 19.7651 9.31348 19.584L8.6712 19.2548L8.25455 19.4661L7.83783 19.6772V17.1011V14.5249H9.95357H12.0693V17.0679ZM22.648 17.9565V21.3881L23.6023 20.9114L24.5566 20.4346L25.2458 20.7862L25.935 21.1379L26.6049 20.8078L27.2748 20.4776L28.0402 20.9373C28.4612 21.1901 28.8313 21.397 28.8626 21.397C28.894 21.397 28.9197 19.8508 28.9197 17.961V14.5249H31.111H33.3023V20.7332V26.9414H25.935H18.5677V20.7332V14.5249H20.6078H22.648V17.9565ZM27.8618 17.0653V19.6056L27.563 19.4278L27.2643 19.2502L26.6174 19.5817C26.2616 19.764 25.9205 19.9132 25.8594 19.9132C25.7983 19.9132 25.4608 19.7659 25.1095 19.5859L24.4708 19.2584L24.0883 19.4736L23.7059 19.6887V17.1068V14.5249H25.7839H27.8618V17.0653ZM1.56616 32.2395C1.56616 35.533 1.5744 35.7492 1.70437 35.8708C1.82708 35.9856 2.12041 35.9998 4.33015 35.9988C5.69828 35.9981 6.85514 35.9718 6.90085 35.9403C7.102 35.8015 7.15777 35.5019 7.15777 34.5605V33.5792H11.1568H15.156L15.1805 34.6789C15.2025 35.6605 15.2209 35.7906 15.3518 35.8893C15.4714 35.9795 15.9612 36 18.0037 36C20.3176 36 20.5182 35.9893 20.6316 35.8598C20.7296 35.748 20.7587 35.5072 20.7756 34.6689L20.7967 33.6182L24.8204 33.598L28.8441 33.5778V34.6596C28.8441 35.6086 28.8611 35.7574 28.9823 35.8708C29.105 35.9856 29.4007 36 31.627 36C34.0328 36 34.1395 35.9938 34.2846 35.8438C34.4312 35.6923 34.4357 35.5835 34.4357 32.2126V28.7375H18.0009H1.56616V32.2395ZM17.4926 31.1388L17.472 32.5249L10.048 32.5449L2.62403 32.5648V31.1587V29.7527H10.0686H17.5133L17.4926 31.1388ZM33.3779 31.1584V32.564H25.9728H18.5677V31.1584V29.7527H25.9728H33.3779V31.1584ZM6.0999 34.243V34.9067H4.36196H2.62403V34.243V33.5792H4.36196H6.0999V34.243ZM19.7011 34.243V34.9067H17.9632H16.2252V34.243V33.5792H17.9632H19.7011V34.243ZM33.3779 34.243V34.9067H31.6399H29.902V34.243V33.5792H31.6399H33.3779V34.243Z" fill="#2F3339"/>
</svg>
