<svg width="50" height="56" viewBox="0 0 50 56" fill="none" xmlns="http://www.w3.org/2000/svg">
<g clip-path="url(#clip0_70_25995)">
<path fill-rule="evenodd" clip-rule="evenodd" d="M6.21094 0H4.96094V1.24444V14.9333H2.5C1.11929 14.9333 0 16.0476 0 17.4222V23.6444C0 25.0191 1.11929 26.1333 2.5 26.1333H4.96094V33.8325L4.10173 34.7165L3.75 35.0783V35.5819V48.5333C3.75 49.4546 4.25275 50.2589 5 50.6892V53.5111C5 54.8857 6.11929 56 7.5 56H12.5C13.8807 56 15 54.8857 15 53.5111V51.0222H25H25.586H35V53.5111C35 54.8857 36.1193 56 37.5 56H42.5C43.8807 56 45 54.8857 45 53.5111V50.6892C45.7472 50.2589 46.25 49.4546 46.25 48.5333V35.6727V35.1406L45.8636 34.773L45 33.9514V26.1333H47.5C48.8807 26.1333 50 25.0191 50 23.6444V17.4222C50 16.0476 48.8807 14.9333 47.5 14.9333H45V12.1644V11.2V1.24444V0H43.75H6.21094ZM2.5 17.4222H4.96094V23.6444H2.5V17.4222ZM45 17.4222V23.6444H47.5V17.4222H45ZM37.5 53.5111V51.0222H42.5V53.5111H37.5ZM7.5 51.0222V53.5111H12.5V51.0222H7.5ZM42.5 11.2V2.48889H7.46094V34.3361V34.8396L7.10921 35.2015L6.25 36.0854V48.5333H18.75V44.8V43.5556H20H30H31.25V44.8V48.5333H43.75V36.2049L42.8864 35.3833L42.5 35.0157V34.4836V12.1644V11.2ZM28.75 46.0444H21.25V48.5333H25H25.586H28.75V46.0444ZM33.75 42.3111C33.75 41.6238 34.3096 41.0667 35 41.0667H41.25C41.9404 41.0667 42.5 41.6238 42.5 42.3111V46.0444C42.5 46.7318 41.9404 47.2889 41.25 47.2889H35C34.3096 47.2889 33.75 46.7318 33.75 46.0444V42.3111ZM36.25 43.5556V44.8H40V43.5556H36.25ZM15 41.0667C15.6904 41.0667 16.25 41.6238 16.25 42.3111V46.0444C16.25 46.7318 15.6904 47.2889 15 47.2889H8.75C8.05965 47.2889 7.5 46.7318 7.5 46.0444V42.3111C7.5 41.6238 8.05965 41.0667 8.75 41.0667H15ZM13.75 44.8V43.5556H10V44.8H13.75ZM8.75 16.1778C8.75 14.1159 10.4289 12.4444 12.5 12.4444H37.5C39.5711 12.4444 41.25 14.1159 41.25 16.1778V23.6444V24.8889H40H10H8.75V23.6444V16.1778ZM12.5 14.9333C11.8097 14.9333 11.25 15.4905 11.25 16.1778V22.4H38.75V16.1778C38.75 15.4905 38.1904 14.9333 37.5 14.9333H12.5ZM40 34.8444H10V32.3556H40V34.8444ZM16.25 39.8222H33.75V37.3333H16.25V39.8222Z" fill="#2F2FC0"/>
</g>
<defs>
<clipPath id="clip0_70_25995">
<rect width="50" height="56" fill="white"/>
</clipPath>
</defs>
</svg>
