<svg width="19" height="19" viewBox="0 0 19 19" fill="none" xmlns="http://www.w3.org/2000/svg">
<g clip-path="url(#clip0_70_28822)">
<path fill-rule="evenodd" clip-rule="evenodd" d="M14.854 0.812213C13.5429 1.06051 12.4935 2.00062 12.0931 3.28567C11.9724 3.6729 11.9266 4.45049 12.0018 4.83612C12.207 5.88963 12.952 7.40027 13.7445 8.37011C14.1207 8.83059 14.6321 9.28334 14.9557 9.44255C15.4537 9.6876 15.885 9.61023 16.4325 9.17767C17.4233 8.39482 18.5387 6.56754 18.9015 5.13318C19.0388 4.59012 19.0319 3.83849 18.885 3.33143C18.5878 2.30575 17.9102 1.51934 16.936 1.06924C16.3309 0.789636 15.509 0.688171 14.854 0.812213ZM16.4123 1.64616C17.493 2.04499 18.1903 2.95878 18.2822 4.09652C18.3466 4.89373 17.9202 6.0603 17.1345 7.23633C16.3902 8.35045 15.7833 8.91552 15.4071 8.84492C15.1531 8.79729 14.4917 8.18646 14.1301 7.66563C13.6953 7.03926 13.575 6.84849 13.3745 6.46629C12.9022 5.56639 12.7443 5.07274 12.7107 4.3904C12.6697 3.55663 12.9243 2.90355 13.5245 2.3028C13.8872 1.93988 14.3501 1.67699 14.8481 1.55117C15.2747 1.44332 15.9786 1.48608 16.4123 1.64616ZM14.9309 2.6108C13.5085 3.11708 13.2975 5.00336 14.5733 5.8087C14.8168 5.96239 15.1302 6.04502 15.4809 6.04793C16.8056 6.05891 17.6542 4.67921 17.0598 3.48078C16.9384 3.23604 16.5693 2.8571 16.3368 2.73848C15.8964 2.5138 15.3443 2.46366 14.9309 2.6108ZM15.8246 3.30672C16.2031 3.41205 16.5181 3.86107 16.5189 4.29649C16.5194 4.57202 16.4481 4.75667 16.2575 4.9738C15.6594 5.65496 14.5424 5.28722 14.4485 4.37829C14.4059 3.96514 14.6659 3.52962 15.0648 3.34584C15.2555 3.25801 15.5881 3.2409 15.8246 3.30672ZM4.38433 4.31065C2.66111 4.47702 1.05509 5.65453 0.363543 7.2586C0.0519413 7.98136 0.000883244 8.25571 1.49094e-05 9.21205C-0.000853426 10.1321 0.0355298 10.39 0.287607 11.2526C0.878162 13.2734 2.12479 15.375 3.29157 16.3171C4.29189 17.1247 5.19435 17.2048 6.16476 16.5721C6.50154 16.3525 7.27619 15.58 7.59478 15.146C8.56966 13.818 9.39553 11.9843 9.70279 10.4653C10.0777 8.61225 9.63211 6.98573 8.41561 5.76611C8.00932 5.35873 7.70892 5.13431 7.22565 4.87698C6.34203 4.40647 5.37935 4.21461 4.38433 4.31065ZM5.35495 5.04582C6.38336 5.17477 7.20307 5.57173 7.89166 6.27421C8.4896 6.88426 8.92533 7.7143 9.04959 8.48C9.11315 8.87184 9.10533 9.73262 9.03426 10.1706C8.75774 11.874 7.74374 13.9372 6.53919 15.2474C6.00516 15.8282 5.45134 16.2024 5.02446 16.2706C3.99844 16.4347 2.14593 14.2941 1.24542 11.9039C0.563998 10.0951 0.505429 8.68133 1.06247 7.48875C1.76525 5.98423 3.13475 5.08503 4.84133 5.00757C4.92556 5.00375 5.15667 5.02099 5.35495 5.04582ZM4.66653 6.76304C4.0129 6.87007 3.55033 7.08793 3.17513 7.46553C2.81781 7.82515 2.62174 8.15303 2.49109 8.6093C2.42067 8.85525 2.42089 9.61188 2.49144 9.8633C2.67449 10.5156 3.18524 11.141 3.77836 11.4389C4.32958 11.7158 5.06167 11.7816 5.6217 11.6046C6.42283 11.3515 7.08923 10.662 7.28999 9.87876C7.37535 9.54571 7.37748 8.91868 7.29433 8.60617C7.07525 7.78303 6.38427 7.07673 5.57829 6.85213C5.32221 6.78076 4.84389 6.73404 4.66653 6.76304ZM5.18606 7.52158C6.54231 7.74161 7.10404 9.38042 6.17531 10.4077C5.65952 10.9781 4.85262 11.1348 4.15951 10.799C3.0638 10.2682 2.81511 8.86159 3.66643 8.01028C3.99019 7.68652 4.30743 7.54611 4.86191 7.48111C4.88579 7.47833 5.03167 7.49653 5.18606 7.52158ZM13.3221 10.138C12.3929 10.8243 11.7214 11.7567 11.6054 12.5218C11.4966 13.2388 11.7021 13.7452 12.3499 14.3569C13.4644 15.4092 13.9331 15.9666 14.1758 16.5283C14.3061 16.8298 14.3143 17.2382 14.1934 17.4034C13.9848 17.6885 13.6115 17.8614 12.8743 18.0144C12.3905 18.1147 10.4619 18.1148 9.81142 18.0145C8.7046 17.8437 8.00302 17.6781 7.34609 17.4324C7.1613 17.3633 7.01126 17.3324 6.94335 17.3494C6.65988 17.4206 6.56458 17.7642 6.77437 17.9587C6.90367 18.0785 7.75759 18.3613 8.47036 18.5205C9.92817 18.8459 11.5413 18.9248 12.894 18.7369C14.0517 18.5761 14.7464 18.1464 14.9604 17.4587C15.0647 17.1237 15.0641 16.9927 14.9564 16.5717C14.785 15.9015 14.1858 15.0546 13.3433 14.2918C12.6227 13.6394 12.5404 13.5538 12.4359 13.3494C12.3488 13.1788 12.3299 13.0786 12.3309 12.7939C12.3321 12.4865 12.349 12.4142 12.4776 12.1644C12.7227 11.6886 13.1302 11.2185 13.6538 10.8073C13.809 10.6854 13.9697 10.5452 14.011 10.4958C14.1907 10.2807 14.0178 9.95014 13.7257 9.95014C13.6179 9.95014 13.5059 10.0023 13.3221 10.138Z" fill="white"/>
</g>
<defs>
<clipPath id="clip0_70_28822">
<rect width="19" height="19" fill="white"/>
</clipPath>
</defs>
</svg>
