<svg width="29" height="29" viewBox="0 0 29 29" fill="none" xmlns="http://www.w3.org/2000/svg">
<path fill-rule="evenodd" clip-rule="evenodd" d="M4.51401 3.04716C4.42555 3.07134 4.34915 3.10035 4.34424 3.11158C4.33931 3.12284 4.31398 3.13203 4.28792 3.13203C4.17407 3.13203 3.77679 3.39311 3.57305 3.6018C3.42516 3.75326 3.22228 4.04085 3.19963 4.13111C3.18952 4.17138 3.17049 4.20432 3.15735 4.20432C3.14419 4.20432 3.13344 4.23448 3.13344 4.27134C3.13344 4.3082 3.12275 4.33836 3.10966 4.33836C3.09661 4.33836 3.07951 4.37154 3.07168 4.41208C3.06385 4.45264 3.04466 4.53405 3.02906 4.59303C3.00975 4.66594 3.00048 5.88803 3.00005 8.41129C2.99946 11.7764 3.00353 12.1375 3.04361 12.2849C3.0679 12.3744 3.09806 12.459 3.11063 12.473C3.12318 12.487 3.13344 12.5262 3.13344 12.5601C3.13344 12.594 3.14454 12.6218 3.15813 12.6218C3.1717 12.6218 3.19076 12.658 3.20046 12.7022C3.21016 12.7464 3.22922 12.7826 3.24279 12.7826C3.25638 12.7826 3.26748 12.7966 3.26748 12.8137C3.26748 12.8542 3.46617 13.1182 3.58782 13.2393C3.71167 13.3626 3.94967 13.5361 4.0851 13.6018C4.14407 13.6304 4.19836 13.6611 4.20573 13.67C4.2131 13.6789 4.24929 13.6933 4.28615 13.702C4.32301 13.7108 4.41952 13.7397 4.50061 13.7663C4.63942 13.8119 4.86564 13.8151 8.36085 13.8218C12.5163 13.8297 12.2251 13.8418 12.65 13.643C13.1601 13.4042 13.4934 13.042 13.7249 12.4743C13.7369 12.4449 13.7655 12.3423 13.7885 12.2465C13.8255 12.0922 13.8293 11.6467 13.8223 8.35944C13.8141 4.59311 13.8105 4.44971 13.7195 4.3531C13.7063 4.33911 13.6955 4.29989 13.6955 4.26598C13.6955 4.23207 13.6834 4.20432 13.6687 4.20432C13.6539 4.20432 13.6419 4.18995 13.6419 4.17237C13.6419 4.10803 13.4277 3.78473 13.2888 3.63931C13.1379 3.48136 12.8659 3.26607 12.8173 3.26607C12.8015 3.26607 12.7845 3.25703 12.7796 3.24596C12.7651 3.21331 12.5962 3.13203 12.5428 3.13203C12.5158 3.13203 12.4896 3.12297 12.4847 3.1119C12.4798 3.10083 12.3954 3.07067 12.2971 3.04488C12.1309 3.00127 11.8595 2.99818 8.39666 3.0006C5.03499 3.00293 4.65928 3.00743 4.51401 3.04716ZM16.6933 3.04708C16.6097 3.07169 16.5323 3.10086 16.5213 3.11193C16.5103 3.12297 16.4802 3.13203 16.4543 3.13203C16.4027 3.13203 16.234 3.21398 16.2198 3.24596C16.2149 3.25701 16.1979 3.26607 16.1821 3.26607C16.1431 3.26607 15.8765 3.46811 15.7557 3.58926C15.6166 3.72876 15.4196 4.00281 15.3803 4.11165C15.3618 4.16264 15.3371 4.20432 15.3253 4.20432C15.3136 4.20432 15.3039 4.23376 15.3039 4.26976C15.3039 4.30576 15.2926 4.34222 15.2787 4.3508C15.2648 4.3594 15.2452 4.42344 15.2351 4.49312C15.225 4.56281 15.2061 4.63324 15.1931 4.64962C15.1797 4.66656 15.173 6.28861 15.1776 8.41603C15.1856 12.1367 15.1889 12.2774 15.2728 12.4743C15.3465 12.6473 15.51 12.9451 15.5819 13.0373C15.6822 13.1658 15.951 13.4251 15.9846 13.4256C15.9977 13.4258 16.0218 13.4428 16.0382 13.4635C16.0702 13.5037 16.3819 13.675 16.47 13.7008C16.9482 13.8405 16.5573 13.8292 20.6322 13.8207C24.4053 13.8127 24.5483 13.8091 24.6449 13.7181C24.6589 13.7049 24.6971 13.6941 24.7298 13.6941C24.7625 13.6941 24.7932 13.685 24.7982 13.674C24.8031 13.6629 24.8734 13.6187 24.9545 13.5758C25.2144 13.4383 25.4231 13.2559 25.6193 12.9946C25.6813 12.9122 25.7319 12.8308 25.7319 12.8137C25.7319 12.7966 25.743 12.7826 25.7566 12.7826C25.7702 12.7826 25.7892 12.7464 25.7989 12.7022C25.8086 12.658 25.8277 12.6218 25.8413 12.6218C25.8549 12.6218 25.866 12.594 25.866 12.5601C25.866 12.5262 25.8762 12.487 25.8888 12.473C25.9014 12.459 25.9315 12.3744 25.9558 12.2849C25.9959 12.1375 26 11.7754 26 8.41571C26 4.97227 25.9967 4.69637 25.9531 4.5304C25.9273 4.43216 25.8972 4.34774 25.8861 4.34283C25.875 4.3379 25.866 4.31257 25.866 4.28651C25.866 4.23169 25.7638 4.03249 25.6535 3.8721C25.5538 3.72721 25.3472 3.51369 25.1958 3.39901C25.1294 3.34877 25.0691 3.30119 25.0617 3.2933C25.0305 3.2598 24.7488 3.13203 24.7062 3.13203C24.6806 3.13203 24.6596 3.12134 24.6596 3.10825C24.6596 3.0952 24.6265 3.0781 24.5859 3.07027C24.5454 3.06244 24.4639 3.04325 24.405 3.02765C24.3319 3.00829 23.1122 2.99977 20.5715 3.00081C17.1735 3.00223 16.832 3.00631 16.6933 3.04708ZM11.9097 4.36854C12.0893 4.41765 12.1819 4.4662 12.2729 4.55903C12.4633 4.75333 12.449 4.43947 12.449 8.41571C12.449 12.3656 12.463 12.0542 12.2761 12.2549C12.0811 12.4643 12.4162 12.4475 8.41446 12.4475C4.44118 12.4475 4.75474 12.4619 4.56044 12.2714C4.46431 12.1772 4.4152 12.0816 4.36856 11.898C4.33341 11.7597 4.34317 5.01561 4.37875 4.84099C4.39003 4.78572 4.41 4.74047 4.42311 4.74047C4.43625 4.74047 4.447 4.72379 4.447 4.70342C4.447 4.65522 4.65663 4.44559 4.70483 4.44559C4.7252 4.44559 4.74188 4.43352 4.74188 4.41878C4.74188 4.40403 4.77504 4.39111 4.8156 4.3901C4.85615 4.38905 4.91344 4.37784 4.94293 4.36516C5.02772 4.32873 11.7761 4.332 11.9097 4.36854ZM24.157 4.37733C24.2123 4.38862 24.2575 4.40859 24.2575 4.4217C24.2575 4.43484 24.2742 4.44559 24.2946 4.44559C24.3428 4.44559 24.5524 4.65522 24.5524 4.70342C24.5524 4.72379 24.5617 4.74047 24.5731 4.74047C24.5845 4.74047 24.6086 4.81855 24.6267 4.91402C24.6713 5.14903 24.6745 11.7034 24.6302 11.8928C24.5871 12.0767 24.5375 12.1748 24.439 12.2714C24.2447 12.4619 24.5585 12.4475 20.5823 12.4475C16.6051 12.4475 16.9399 12.4638 16.7379 12.2607C16.5339 12.0556 16.5505 12.3957 16.5505 8.41305C16.5505 5.27951 16.5555 4.81928 16.5907 4.75159C16.6655 4.6075 16.783 4.48269 16.8855 4.43816C17.099 4.34546 17.12 4.34498 20.6117 4.35096C22.5063 4.3542 24.1017 4.36608 24.157 4.37733ZM8.24236 5.75568C8.23443 5.76852 8.19301 5.786 8.15033 5.79455C8.06766 5.81107 7.85151 6.01156 7.85151 6.07169C7.85151 6.09147 7.84194 6.10763 7.83026 6.10763C7.76959 6.10763 7.74428 6.38388 7.74428 7.04626V7.74287H7.04767C6.38529 7.74287 6.10904 7.76818 6.10904 7.82885C6.10904 7.84053 6.09288 7.8501 6.0731 7.8501C6.01297 7.8501 5.81248 8.06625 5.79596 8.14892C5.78741 8.1916 5.76993 8.23302 5.75709 8.24095C5.74425 8.24889 5.73374 8.33081 5.73374 8.42303C5.73374 8.54519 5.75117 8.62657 5.79797 8.72303C5.87392 8.87955 5.94413 8.94957 6.11762 9.04182L6.24592 9.11004H6.99427H7.74265L7.75276 9.85394C7.76257 10.5766 7.77854 10.7721 7.82774 10.7721C7.84082 10.7721 7.85151 10.7883 7.85151 10.808C7.85151 10.849 8.04922 11.0402 8.0916 11.0402C8.10699 11.0402 8.11959 11.0509 8.11959 11.0639C8.11959 11.0876 8.20411 11.1105 8.39473 11.1384C8.49733 11.1533 8.73615 11.0993 8.73615 11.0611C8.73615 11.0496 8.75583 11.0402 8.7799 11.0402C8.84309 11.0402 9.0024 10.8612 9.06108 10.7243C9.10636 10.6187 9.11145 10.5311 9.11145 9.85842V9.11004H9.85983C10.5314 9.11004 10.6202 9.1049 10.7252 9.05989C10.8567 9.00351 11.0416 8.83731 11.0416 8.77543C11.0416 8.75305 11.0517 8.73474 11.0641 8.73474C11.1007 8.73474 11.1573 8.45343 11.1389 8.36266C11.1296 8.31666 11.1146 8.24283 11.1056 8.1986C11.0965 8.15437 11.0784 8.11818 11.0653 8.11818C11.0523 8.11818 11.0416 8.10558 11.0416 8.09019C11.0416 8.04781 10.8504 7.8501 10.8094 7.8501C10.7897 7.8501 10.7735 7.83941 10.7735 7.82633C10.7735 7.77713 10.578 7.76116 9.85535 7.75135L9.11145 7.74124V6.99286V6.24451L9.04323 6.11621C8.95098 5.94272 8.88096 5.87251 8.72444 5.79656C8.62798 5.74976 8.5466 5.73233 8.42444 5.73233C8.33222 5.73233 8.2503 5.74284 8.24236 5.75568ZM18.3867 7.76949C18.3646 7.78389 18.3194 7.79585 18.2862 7.79609C18.2531 7.7963 18.2259 7.80855 18.2259 7.8233C18.2259 7.83804 18.2097 7.8501 18.19 7.8501C18.149 7.8501 17.9578 8.04781 17.9578 8.09019C17.9578 8.10558 17.9471 8.11818 17.9341 8.11818C17.9104 8.11818 17.8875 8.2027 17.8596 8.39332C17.8447 8.49592 17.8987 8.73474 17.9369 8.73474C17.9484 8.73474 17.9578 8.75305 17.9578 8.77543C17.9578 8.83731 18.1427 9.00351 18.2742 9.05989C18.3853 9.10752 18.5014 9.11004 20.5849 9.11004C22.6685 9.11004 22.7846 9.10752 22.8957 9.05989C23.1494 8.95113 23.3193 8.6919 23.3193 8.41338C23.3193 8.34121 23.3072 8.27473 23.2925 8.26561C23.2777 8.2565 23.2657 8.21961 23.2657 8.18361C23.2657 8.14761 23.2536 8.11818 23.2389 8.11818C23.2241 8.11818 23.212 8.10209 23.212 8.08244C23.212 8.03598 23.0262 7.8501 22.9797 7.8501C22.9601 7.8501 22.944 7.83941 22.944 7.82633C22.944 7.81327 22.9048 7.79308 22.8569 7.78148C22.725 7.74955 18.4351 7.73805 18.3867 7.76949ZM4.63465 15.1936C4.59816 15.2138 4.46295 15.253 4.28615 15.2947C4.24929 15.3034 4.2131 15.318 4.20573 15.3271C4.19836 15.3363 4.15729 15.3592 4.11448 15.3781C3.98414 15.4354 3.76564 15.5901 3.62485 15.7246C3.47703 15.8658 3.26748 16.1345 3.26748 16.1829C3.26748 16.2 3.25638 16.214 3.24279 16.214C3.22922 16.214 3.21016 16.2501 3.20046 16.2944C3.19076 16.3386 3.1717 16.3748 3.15813 16.3748C3.14454 16.3748 3.13344 16.4025 3.13344 16.4365C3.13344 16.4704 3.12318 16.5096 3.11063 16.5236C3.09806 16.5376 3.0679 16.6222 3.04361 16.7117C3.00353 16.8591 2.99946 17.2202 3.00005 20.5853C3.00048 23.1086 3.00975 24.3306 3.02906 24.4036C3.04466 24.4625 3.06385 24.544 3.07168 24.5845C3.07951 24.6251 3.09661 24.6582 3.10966 24.6582C3.12275 24.6582 3.13344 24.6884 3.13344 24.7252C3.13344 24.7621 3.14419 24.7923 3.15735 24.7923C3.17049 24.7923 3.18952 24.8252 3.19963 24.8655C3.22228 24.9557 3.42516 25.2433 3.57305 25.3948C3.70226 25.5271 3.96926 25.7305 4.01382 25.7305C4.03089 25.7305 4.04489 25.7416 4.04489 25.7552C4.04489 25.7688 4.08108 25.7878 4.12531 25.7975C4.16954 25.8072 4.20573 25.8263 4.20573 25.8399C4.20573 25.8535 4.23348 25.8646 4.26739 25.8646C4.3013 25.8646 4.34052 25.8748 4.35451 25.8874C4.36853 25.8999 4.45316 25.9301 4.54259 25.9544C4.68998 25.9945 5.05209 25.9986 8.41181 25.9986C11.8553 25.9986 12.1312 25.9953 12.2971 25.9517C12.3954 25.9259 12.4798 25.8958 12.4847 25.8847C12.4896 25.8736 12.5228 25.8646 12.5584 25.8646C12.5941 25.8646 12.6232 25.8535 12.6232 25.8399C12.6232 25.8263 12.6594 25.8072 12.7036 25.7975C12.7479 25.7878 12.784 25.7688 12.784 25.7552C12.784 25.7416 12.798 25.7305 12.8151 25.7305C12.8556 25.7305 13.1196 25.5318 13.2407 25.4102C13.364 25.2863 13.5375 25.0483 13.6032 24.9129C13.6318 24.8539 13.6643 24.8016 13.6754 24.7967C13.6864 24.7918 13.6955 24.7611 13.6955 24.7284C13.6955 24.6957 13.7063 24.6575 13.7195 24.6435C13.8105 24.5469 13.8141 24.4035 13.8223 20.6371C13.8314 16.4047 13.8491 16.757 13.6024 16.2676C13.3641 15.7946 13.0755 15.5398 12.4758 15.2724C12.2849 15.1874 12.148 15.1842 8.41446 15.1778C6.35768 15.1743 4.65676 15.1814 4.63465 15.1936ZM16.8051 15.1956C16.7683 15.2074 16.6657 15.2387 16.5773 15.2652C16.0736 15.4159 15.6199 15.8035 15.3873 16.2818C15.2608 16.5418 15.254 16.559 15.2178 16.7099C15.1788 16.8725 15.1548 24.2986 15.1931 24.347C15.2061 24.3633 15.225 24.4338 15.2351 24.5035C15.2452 24.5731 15.2648 24.6372 15.2787 24.6458C15.2926 24.6544 15.3039 24.6908 15.3039 24.7268C15.3039 24.7628 15.3136 24.7923 15.3253 24.7923C15.3371 24.7923 15.3618 24.834 15.3803 24.8849C15.3987 24.9359 15.4694 25.0535 15.5374 25.1463C15.6586 25.3118 15.937 25.5965 15.9776 25.5965C15.9889 25.5965 16.0307 25.6266 16.0705 25.6635C16.1102 25.7004 16.1591 25.7305 16.1791 25.7305C16.199 25.7305 16.2154 25.7416 16.2154 25.7552C16.2154 25.7688 16.2516 25.7878 16.2958 25.7975C16.34 25.8072 16.3762 25.8263 16.3762 25.8399C16.3762 25.8535 16.4005 25.8646 16.4302 25.8646C16.4599 25.8646 16.5051 25.8755 16.5307 25.8889C16.5563 25.9023 16.642 25.9324 16.7211 25.9559C16.8497 25.9941 17.259 25.9985 20.5813 25.9979C23.1084 25.9975 24.3321 25.9882 24.405 25.9689C24.4639 25.9533 24.5454 25.9341 24.5859 25.9263C24.6265 25.9185 24.6596 25.9014 24.6596 25.8883C24.6596 25.8753 24.6898 25.8646 24.7267 25.8646C24.7635 25.8646 24.7937 25.8535 24.7937 25.8399C24.7937 25.8263 24.8299 25.8072 24.8741 25.7975C24.9183 25.7878 24.9545 25.7688 24.9545 25.7552C24.9545 25.7416 24.9685 25.7305 24.9856 25.7305C25.0262 25.7305 25.2902 25.5325 25.4121 25.4107C25.534 25.2888 25.7319 25.0248 25.7319 24.9842C25.7319 24.9671 25.743 24.9531 25.7566 24.9531C25.7702 24.9531 25.7892 24.9169 25.7989 24.8727C25.8086 24.8285 25.8277 24.7923 25.8413 24.7923C25.8549 24.7923 25.866 24.7631 25.866 24.7275C25.866 24.6918 25.875 24.6587 25.8861 24.6538C25.8972 24.6488 25.9273 24.5644 25.9531 24.4662C25.9967 24.3002 26 24.0243 26 20.5809C26 17.2212 25.9959 16.859 25.9558 16.7117C25.9315 16.6222 25.9014 16.5376 25.8888 16.5236C25.8762 16.5096 25.866 16.4774 25.866 16.452C25.866 16.4011 25.7837 16.2325 25.752 16.2184C25.741 16.2135 25.7319 16.1965 25.7319 16.1807C25.7319 16.1421 25.5316 15.8761 25.4121 15.7558C25.2771 15.6201 24.996 15.4185 24.8863 15.3789C24.8354 15.3604 24.7937 15.3357 24.7937 15.3239C24.7937 15.3122 24.7642 15.3025 24.7282 15.3025C24.6922 15.3025 24.6556 15.2908 24.6467 15.2765C24.6379 15.2622 24.5705 15.2425 24.4971 15.2327C24.4237 15.223 24.3571 15.2046 24.3492 15.1917C24.3311 15.1625 16.8968 15.1663 16.8051 15.1956ZM12.0857 16.5893C12.2092 16.6649 12.3579 16.8148 12.4034 16.9098C12.4455 16.9977 12.449 17.2723 12.449 20.5835C12.449 24.5568 12.4633 24.2433 12.2729 24.4376C12.1702 24.5422 12.0704 24.5905 11.8726 24.631C11.7034 24.6657 5.01534 24.6545 4.8424 24.6193C4.78713 24.608 4.74188 24.588 4.74188 24.5749C4.74188 24.5618 4.7252 24.551 4.70483 24.551C4.65663 24.551 4.447 24.3414 4.447 24.2932C4.447 24.2728 4.43625 24.2561 4.42311 24.2561C4.41 24.2561 4.39003 24.2109 4.37875 24.1556C4.36749 24.1003 4.35368 22.517 4.34808 20.6371C4.33773 17.1599 4.33878 17.1147 4.43475 16.8975C4.50273 16.7436 4.69223 16.5911 4.86251 16.5533C4.892 16.5467 6.5145 16.5431 8.46808 16.5452C11.5737 16.5486 12.0283 16.5541 12.0857 16.5893ZM24.2555 16.5893C24.4901 16.7344 24.569 16.8428 24.6302 17.1038C24.6745 17.2932 24.6713 23.8476 24.6267 24.0826C24.6086 24.178 24.5845 24.2561 24.5731 24.2561C24.5617 24.2561 24.5524 24.2728 24.5524 24.2932C24.5524 24.3136 24.5027 24.3799 24.442 24.4406C24.3813 24.5013 24.315 24.551 24.2946 24.551C24.2742 24.551 24.2575 24.5603 24.2575 24.5717C24.2575 24.5831 24.1794 24.6072 24.084 24.6253C23.8456 24.6705 17.2545 24.6731 17.0897 24.628C16.9328 24.5851 16.8051 24.526 16.8051 24.4961C16.8051 24.4821 16.787 24.4706 16.7649 24.4706C16.7428 24.4706 16.7247 24.4608 16.7247 24.4488C16.7247 24.4369 16.7036 24.4037 16.6778 24.3751C16.5436 24.2265 16.5505 24.429 16.5505 20.5835C16.5505 16.6022 16.534 16.9397 16.7376 16.7362C16.8446 16.6291 16.9302 16.5761 17.033 16.5533C17.0625 16.5467 18.685 16.5431 20.6386 16.5452C23.7445 16.5486 24.1987 16.5541 24.2555 16.5893ZM6.81944 18.4753C6.63146 18.5505 6.45754 18.672 6.45754 18.728C6.45754 18.7435 6.44848 18.7602 6.43743 18.7651C6.38607 18.7879 6.3235 18.9892 6.3235 19.1316C6.3235 19.3882 6.39628 19.4947 6.9539 20.0537C7.22642 20.3269 7.4494 20.5559 7.4494 20.5626C7.4494 20.5693 7.21932 20.8066 6.93808 21.09C6.37905 21.6533 6.32506 21.7319 6.32409 21.984C6.32353 22.1304 6.39167 22.3528 6.43706 22.3528C6.44832 22.3528 6.45754 22.3688 6.45754 22.3884C6.45754 22.4315 6.56922 22.5405 6.61339 22.5405C6.6309 22.5405 6.64519 22.5497 6.64519 22.5609C6.64519 22.6063 6.86761 22.6745 7.01398 22.6739C7.26612 22.6729 7.34472 22.6189 7.90802 22.0599C8.1914 21.7787 8.42827 21.5486 8.43444 21.5486C8.4406 21.5486 8.66919 21.7714 8.94238 22.0436C9.50174 22.6011 9.60929 22.6745 9.8664 22.6745C10.0088 22.6745 10.2101 22.6119 10.2329 22.5606C10.2378 22.5495 10.2537 22.5405 10.2683 22.5405C10.3055 22.5405 10.3525 22.4893 10.4289 22.3656C10.521 22.2165 10.5683 22.0531 10.5502 21.947C10.5155 21.7439 10.4982 21.6826 10.4756 21.6826C10.4625 21.6826 10.4518 21.6659 10.4518 21.6455C10.4518 21.625 10.2226 21.3767 9.94248 21.0936C9.66234 20.8105 9.43314 20.5702 9.43314 20.5596C9.43314 20.549 9.66234 20.3096 9.94248 20.0276C10.2226 19.7456 10.4518 19.4959 10.4518 19.4728C10.4518 19.4497 10.4625 19.4308 10.4756 19.4308C10.498 19.4308 10.5149 19.3713 10.5498 19.1694C10.582 18.9834 10.4414 18.6993 10.2544 18.5722C10.1224 18.4826 9.93883 18.4291 9.8286 18.4481C9.62674 18.4831 9.56717 18.5 9.56717 18.5224C9.56717 18.5355 9.54828 18.5462 9.52517 18.5462C9.50206 18.5462 9.25243 18.7754 8.97042 19.0555C8.68843 19.3357 8.44902 19.5649 8.43843 19.5649C8.42784 19.5649 8.18751 19.3357 7.90443 19.0555C7.62132 18.7754 7.37298 18.5462 7.35252 18.5462C7.3321 18.5462 7.31537 18.5355 7.31537 18.5224C7.31537 18.4659 6.93366 18.4296 6.81944 18.4753ZM18.3331 18.5634C18.1753 18.6166 17.9977 18.7665 17.9407 18.8947C17.8666 19.0613 17.8506 19.1184 17.8506 19.2164C17.8506 19.3143 17.8666 19.3714 17.9407 19.5381C17.9839 19.6354 18.1415 19.7801 18.2657 19.8365C18.3671 19.8825 18.5023 19.8854 20.5864 19.886L22.7994 19.8865L22.9346 19.8192C23.1209 19.7263 23.189 19.645 23.2891 19.3961C23.3251 19.3066 23.3288 19.1003 23.2956 19.035C23.2826 19.0094 23.2556 18.9523 23.2357 18.9081C23.1954 18.8189 23.0467 18.6618 22.9437 18.5998C22.886 18.565 22.5732 18.5589 20.6252 18.5547C19.3867 18.552 18.3553 18.5559 18.3331 18.5634ZM18.3599 21.2537C18.3599 21.2685 18.3298 21.2805 18.2929 21.2805C18.2561 21.2805 18.2259 21.2926 18.2259 21.3073C18.2259 21.3221 18.2078 21.3341 18.1856 21.3341C18.1375 21.3341 17.9578 21.5182 17.9578 21.5676C17.9578 21.5866 17.9483 21.6022 17.9366 21.6022C17.9108 21.6022 17.8506 21.8182 17.8506 21.9105C17.8506 22.0028 17.9108 22.2188 17.9366 22.2188C17.9483 22.2188 17.9578 22.2343 17.9578 22.2534C17.9578 22.3027 18.1375 22.4868 18.1856 22.4868C18.2078 22.4868 18.2259 22.4989 18.2259 22.5137C18.2259 22.5284 18.2561 22.5405 18.2929 22.5405C18.3298 22.5405 18.3599 22.5525 18.3599 22.5673C18.3599 22.5849 19.1195 22.5941 20.5849 22.5941C22.0504 22.5941 22.8099 22.5849 22.8099 22.5673C22.8099 22.5525 22.8401 22.5405 22.877 22.5405C22.9138 22.5405 22.944 22.5284 22.944 22.5137C22.944 22.4989 22.9621 22.4868 22.9842 22.4868C23.0324 22.4868 23.212 22.3027 23.212 22.2534C23.212 22.2343 23.2212 22.2188 23.2323 22.2188C23.2963 22.2188 23.352 21.7596 23.2925 21.7228C23.2777 21.7137 23.2657 21.6829 23.2657 21.6542C23.2657 21.6256 23.2536 21.6022 23.2389 21.6022C23.2241 21.6022 23.212 21.5866 23.212 21.5676C23.212 21.5182 23.0324 21.3341 22.9842 21.3341C22.9621 21.3341 22.944 21.3221 22.944 21.3073C22.944 21.2926 22.9138 21.2805 22.877 21.2805C22.8401 21.2805 22.8099 21.2685 22.8099 21.2537C22.8099 21.236 22.0504 21.2269 20.5849 21.2269C19.1195 21.2269 18.3599 21.236 18.3599 21.2537Z" fill="#2F3339"/>
</svg>
