<svg width="60" height="60" viewBox="0 0 60 60" fill="none" xmlns="http://www.w3.org/2000/svg">
<rect width="60" height="60" rx="30" fill="white"/>
<path d="M47.8466 22.3704C48.1035 21.4548 47.8466 20.781 46.6105 20.781H42.5202C41.4785 20.781 40.9993 21.3596 40.7424 22.0042C40.7424 22.0042 38.6591 27.3582 35.7146 30.8298C34.7632 31.8333 34.3257 32.1555 33.8049 32.1555C33.548 32.1555 33.1521 31.8333 33.1521 30.9177V22.3704C33.1521 21.2717 32.8605 20.781 31.9993 20.781H25.5688C24.916 20.781 24.5271 21.2937 24.5271 21.7698C24.5271 22.8098 25.9993 23.0515 26.1521 25.9812V32.3386C26.1521 33.7302 25.916 33.9866 25.3952 33.9866C24.0063 33.9866 20.6313 28.6106 18.6313 22.4583C18.2285 21.2644 17.8327 20.781 16.7841 20.781H12.6938C11.5271 20.781 11.291 21.3596 11.291 22.0042C11.291 23.1467 12.6799 28.823 17.7563 36.323C21.1382 41.4426 25.9021 44.2185 30.2355 44.2185C32.8396 44.2185 33.1591 43.6033 33.1591 42.5413C33.1591 37.6487 32.923 37.1873 34.2285 37.1873C34.8327 37.1873 35.8743 37.5095 38.3049 39.9778C41.0827 42.9075 41.541 44.2185 43.0966 44.2185H47.1868C48.3535 44.2185 48.9438 43.6033 48.6035 42.3875C47.8257 39.8313 42.5688 34.5725 42.3327 34.2209C41.7285 33.4006 41.9021 33.0344 42.3327 32.302C42.3396 32.2947 47.3327 24.8826 47.8466 22.3704Z" fill="#2F3339"/>
</svg>
