<svg width="18" height="21" viewBox="0 0 18 21" fill="none" xmlns="http://www.w3.org/2000/svg">
<path d="M4.65047 7.51556L4.65048 7.51552C5.29152 5.22776 7.7179 3.8539 10.0536 4.42025C10.6148 4.5563 10.9825 4.7036 11.4246 4.97897C12.7263 5.78974 13.4709 7.10301 13.467 8.61168M4.65047 7.51556L9.9124 12.2995L10.0283 12.7859C10.0283 12.7859 10.0283 12.7859 10.0283 12.7859C11.4163 12.4553 12.5782 11.5226 13.1276 10.2636L12.6693 10.0636L13.1276 10.2636C13.3764 9.69331 13.4653 9.25425 13.467 8.61168M4.65047 7.51556C4.56702 7.81343 4.52953 8.20588 4.52557 8.56719C4.52163 8.92637 4.55012 9.31652 4.62993 9.60637L4.65047 7.51556ZM13.467 8.61168L12.967 8.61036L13.467 8.61168ZM8.00558 0.557472L8.0056 0.55747C9.40345 0.392607 10.8772 0.584372 12.2192 1.10807C14.3509 1.93993 16.0588 3.59393 16.9051 5.63208L17.3669 5.44034L16.9051 5.63209C17.5163 7.10382 17.6561 8.6095 17.3266 10.1821C17.0468 11.5169 16.175 13.2976 15.0332 14.8084L15.0332 14.8084C13.7334 16.5282 11.7531 18.5125 9.88658 19.9614C9.5499 20.2227 9.3861 20.3457 9.27768 20.4133C9.20013 20.4616 9.17272 20.4697 9.09536 20.4862C9.02089 20.5021 8.98177 20.502 8.9493 20.4971C8.91373 20.4916 8.85329 20.4751 8.74605 20.4166C8.51329 20.2895 8.17014 20.0286 7.53963 19.5092C4.70805 17.1767 2.45189 14.5024 1.39767 12.2804L1.39767 12.2804C0.723163 10.8588 0.454836 9.63483 0.506127 8.29462L0.506127 8.29461C0.555081 7.01463 0.856324 5.93153 1.46394 4.84107C2.7802 2.47893 5.19689 0.888629 8.00558 0.557472ZM0.00651794 8.2755L0.00654202 8.2755L0.00651794 8.2755Z" stroke="#2F3339"/>
</svg>
