<svg width="14" height="14" viewBox="0 0 14 14" fill="none" xmlns="http://www.w3.org/2000/svg">
<path fill-rule="evenodd" clip-rule="evenodd" d="M2.20119 1.4963C2.15868 1.50792 2.12197 1.52186 2.11961 1.52726C2.11724 1.53267 2.10506 1.53708 2.09254 1.53708C2.03783 1.53708 1.84692 1.66255 1.74901 1.76285C1.67794 1.83563 1.58045 1.97384 1.56956 2.01722C1.56471 2.03657 1.55556 2.0524 1.54925 2.0524C1.54292 2.0524 1.53776 2.0669 1.53776 2.08461C1.53776 2.10233 1.53262 2.11682 1.52633 2.11682C1.52006 2.11682 1.51184 2.13277 1.50808 2.15225C1.50432 2.17174 1.49509 2.21086 1.4876 2.23921C1.47832 2.27425 1.47386 2.86156 1.47366 4.07418C1.47337 5.69138 1.47533 5.86491 1.49459 5.93577C1.50626 5.97875 1.52075 6.01943 1.5268 6.02616C1.53282 6.0329 1.53776 6.05173 1.53776 6.06803C1.53776 6.08433 1.54309 6.09766 1.54962 6.09766C1.55614 6.09766 1.5653 6.11505 1.56996 6.13631C1.57463 6.15756 1.58379 6.17496 1.5903 6.17496C1.59684 6.17496 1.60217 6.18168 1.60217 6.18989C1.60217 6.20935 1.69765 6.3362 1.75611 6.39441C1.81563 6.45367 1.93 6.53706 1.99508 6.56865C2.02342 6.58239 2.0495 6.59713 2.05305 6.6014C2.05659 6.60566 2.07398 6.61259 2.09169 6.6168C2.10941 6.62102 2.15578 6.63492 2.19475 6.64771C2.26145 6.66959 2.37017 6.67114 4.04978 6.67435C6.04669 6.67815 5.90673 6.68399 6.11093 6.58841C6.35608 6.47369 6.51621 6.29959 6.62746 6.0268C6.63324 6.01263 6.647 5.96335 6.65804 5.9173C6.67581 5.84316 6.67766 5.62907 6.67426 4.04927C6.67036 2.23925 6.66859 2.17033 6.62487 2.1239C6.61853 2.11718 6.61334 2.09833 6.61334 2.08203C6.61334 2.06574 6.60754 2.0524 6.60046 2.0524C6.59337 2.0524 6.58758 2.0455 6.58758 2.03705C6.58758 2.00613 6.48466 1.85076 6.4179 1.78087C6.34538 1.70496 6.2147 1.6015 6.19135 1.6015C6.18373 1.6015 6.17556 1.59716 6.17319 1.59184C6.16622 1.57615 6.08508 1.53708 6.05943 1.53708C6.04643 1.53708 6.03386 1.53273 6.03149 1.52741C6.02913 1.52209 5.98857 1.5076 5.94135 1.4952C5.86147 1.47424 5.73105 1.47276 4.067 1.47392C2.45154 1.47504 2.271 1.4772 2.20119 1.4963ZM8.05393 1.49626C8.01375 1.50809 7.97655 1.5221 7.97128 1.52742C7.966 1.53273 7.95152 1.53708 7.9391 1.53708C7.9143 1.53708 7.83324 1.57647 7.82642 1.59184C7.82405 1.59715 7.81588 1.6015 7.80827 1.6015C7.78952 1.6015 7.66145 1.6986 7.60339 1.75682C7.53653 1.82386 7.44187 1.95556 7.42296 2.00787C7.41411 2.03237 7.40223 2.0524 7.39656 2.0524C7.39091 2.0524 7.38627 2.06655 7.38627 2.08385C7.38627 2.10115 7.38081 2.11867 7.37414 2.1228C7.36746 2.12693 7.35803 2.15771 7.35319 2.19119C7.34833 2.22469 7.33926 2.25853 7.33303 2.2664C7.32656 2.27455 7.32334 3.05407 7.32554 4.07646C7.3294 5.86452 7.33098 5.93214 7.37132 6.0268C7.40671 6.10991 7.4853 6.25301 7.51987 6.29735C7.56804 6.35909 7.69722 6.48371 7.71335 6.48397C7.71965 6.48407 7.73124 6.49224 7.73911 6.50215C7.75451 6.52151 7.90428 6.60383 7.94665 6.61621C8.17645 6.68334 7.98859 6.67793 9.94676 6.67381C11.7599 6.67 11.8286 6.66825 11.8751 6.62451C11.8818 6.61817 11.9002 6.61298 11.9159 6.61298C11.9316 6.61298 11.9463 6.60862 11.9487 6.60332C11.9511 6.598 11.9849 6.57678 12.0239 6.55615C12.1487 6.49007 12.249 6.40238 12.3433 6.27685C12.3731 6.23723 12.3974 6.19811 12.3974 6.18989C12.3974 6.18168 12.4028 6.17496 12.4093 6.17496C12.4158 6.17496 12.425 6.15756 12.4296 6.13631C12.4343 6.11505 12.4435 6.09766 12.45 6.09766C12.4565 6.09766 12.4619 6.08433 12.4619 6.06803C12.4619 6.05173 12.4668 6.03288 12.4728 6.02616C12.4789 6.01942 12.4934 5.97875 12.505 5.93577C12.5243 5.86494 12.5263 5.69092 12.5263 4.07631C12.5263 2.42146 12.5247 2.28887 12.5037 2.20911C12.4913 2.1619 12.4768 2.12133 12.4715 2.11897C12.4662 2.1166 12.4619 2.10443 12.4619 2.0919C12.4619 2.06556 12.4128 1.96982 12.3597 1.89275C12.3118 1.82311 12.2126 1.7205 12.1398 1.66539C12.1079 1.64124 12.0789 1.61838 12.0754 1.61459C12.0604 1.59849 11.925 1.53708 11.9045 1.53708C11.8922 1.53708 11.8822 1.53194 11.8822 1.52566C11.8822 1.51938 11.8662 1.51116 11.8467 1.5074C11.8272 1.50364 11.7881 1.49442 11.7598 1.48692C11.7246 1.47762 11.1385 1.47352 9.91762 1.47402C8.28468 1.47471 8.12057 1.47666 8.05393 1.49626ZM5.75518 2.13133C5.84149 2.15493 5.88597 2.17826 5.9297 2.22287C6.02121 2.31625 6.01432 2.16541 6.01432 4.07631C6.01432 5.97456 6.02106 5.82489 5.93124 5.92133C5.83754 6.02196 5.9986 6.01392 4.07555 6.01392C2.16619 6.01392 2.31687 6.0208 2.2235 5.92929C2.17731 5.88401 2.15371 5.83808 2.13129 5.74982C2.1144 5.68334 2.11909 2.44229 2.13619 2.35837C2.14161 2.33181 2.15121 2.31006 2.15751 2.31006C2.16382 2.31006 2.16899 2.30205 2.16899 2.29226C2.16899 2.2691 2.26972 2.16835 2.29289 2.16835C2.30268 2.16835 2.31069 2.16255 2.31069 2.15547C2.31069 2.14838 2.32662 2.14217 2.34612 2.14168C2.36561 2.14118 2.39314 2.1358 2.40731 2.1297C2.44805 2.11219 5.69098 2.11377 5.75518 2.13133ZM11.6406 2.13555C11.6672 2.14097 11.6889 2.15057 11.6889 2.15687C11.6889 2.16318 11.6969 2.16835 11.7067 2.16835C11.7299 2.16835 11.8306 2.2691 11.8306 2.29226C11.8306 2.30205 11.8351 2.31006 11.8406 2.31006C11.846 2.31006 11.8576 2.34759 11.8663 2.39347C11.8878 2.50641 11.8893 5.65631 11.868 5.74733C11.8473 5.83568 11.8235 5.88286 11.7761 5.92929C11.6827 6.02081 11.8336 6.01392 9.92279 6.01392C8.01157 6.01392 8.17243 6.02174 8.07537 5.92413C7.97733 5.82557 7.98529 5.98899 7.98529 4.07503C7.98529 2.56911 7.98773 2.34794 8.00462 2.31541C8.04058 2.24616 8.09702 2.18618 8.14632 2.16478C8.24891 2.12023 8.25898 2.12 9.93694 2.12287C10.8474 2.12443 11.6141 2.13014 11.6406 2.13555ZM3.99285 2.79795C3.98903 2.80413 3.96913 2.81253 3.94862 2.81664C3.90889 2.82457 3.80502 2.92092 3.80502 2.94982C3.80502 2.95933 3.80042 2.9671 3.79481 2.9671C3.76566 2.9671 3.75349 3.09985 3.75349 3.41818V3.75296H3.41874C3.10043 3.75296 2.96768 3.76512 2.96768 3.79427C2.96768 3.79989 2.95991 3.80449 2.95041 3.80449C2.92151 3.80449 2.82517 3.90836 2.81723 3.9481C2.81312 3.96861 2.80472 3.98851 2.79855 3.99232C2.79238 3.99614 2.78733 4.03551 2.78733 4.07982C2.78733 4.13853 2.7957 4.17764 2.8182 4.224C2.85469 4.29922 2.88843 4.33287 2.9718 4.3772L3.03346 4.40999H3.39308H3.75271L3.75757 4.76749C3.76228 5.11478 3.76996 5.20873 3.7936 5.20873C3.79988 5.20873 3.80502 5.2165 3.80502 5.22598C3.80502 5.24568 3.90003 5.33756 3.9204 5.33756C3.92779 5.33756 3.93385 5.3427 3.93385 5.34899C3.93385 5.36038 3.97446 5.37137 4.06607 5.38475C4.11537 5.39196 4.23014 5.36598 4.23014 5.34764C4.23014 5.3421 4.23959 5.33756 4.25116 5.33756C4.28152 5.33756 4.35808 5.25157 4.38628 5.18576C4.40804 5.135 4.41049 5.09294 4.41049 4.76964V4.40999H4.77012C5.09283 4.40999 5.13552 4.40752 5.18597 4.38588C5.24917 4.35879 5.338 4.27892 5.338 4.24918C5.338 4.23843 5.34287 4.22963 5.34882 4.22963C5.36642 4.22963 5.3936 4.09443 5.38478 4.05081C5.38031 4.0287 5.37309 3.99322 5.36875 3.97197C5.3644 3.95071 5.3557 3.93332 5.34943 3.93332C5.34314 3.93332 5.338 3.92726 5.338 3.91987C5.338 3.8995 5.24613 3.80449 5.22643 3.80449C5.21695 3.80449 5.20918 3.79935 5.20918 3.79306C5.20918 3.76942 5.11523 3.76174 4.76797 3.75703L4.41049 3.75217V3.39252V3.03288L4.3777 2.97122C4.33337 2.88784 4.29973 2.8541 4.22451 2.8176C4.17816 2.79511 4.13905 2.78673 4.08034 2.78673C4.03603 2.78673 3.99666 2.79178 3.99285 2.79795ZM8.86772 3.76575C8.85709 3.77267 8.83535 3.77841 8.81941 3.77853C8.80348 3.77863 8.79043 3.78452 8.79043 3.79161C8.79043 3.79869 8.78266 3.80449 8.77318 3.80449C8.75348 3.80449 8.66161 3.8995 8.66161 3.91987C8.66161 3.92726 8.65647 3.93332 8.65018 3.93332C8.63879 3.93332 8.6278 3.97394 8.61442 4.06555C8.60722 4.11485 8.63319 4.22963 8.65153 4.22963C8.65707 4.22963 8.66161 4.23843 8.66161 4.24918C8.66161 4.27892 8.75044 4.35879 8.81364 4.38588C8.86704 4.40878 8.92281 4.40999 9.92406 4.40999C10.9253 4.40999 10.9811 4.40878 11.0345 4.38588C11.1564 4.33362 11.238 4.20904 11.238 4.07519C11.238 4.0405 11.2322 4.00856 11.2252 4.00417C11.2181 3.99979 11.2123 3.98207 11.2123 3.96477C11.2123 3.94746 11.2065 3.93332 11.1994 3.93332C11.1923 3.93332 11.1865 3.92559 11.1865 3.91615C11.1865 3.89382 11.0972 3.80449 11.0749 3.80449C11.0654 3.80449 11.0577 3.79935 11.0577 3.79306C11.0577 3.78679 11.0389 3.77709 11.0158 3.77151C10.9524 3.75616 8.89095 3.75064 8.86772 3.76575ZM2.25916 7.33363C2.24163 7.34331 2.17665 7.36216 2.09169 7.38219C2.07398 7.38638 2.05659 7.3934 2.05305 7.3978C2.0495 7.4022 2.02977 7.41322 2.0092 7.42227C1.94656 7.44984 1.84156 7.52415 1.7739 7.5888C1.70287 7.65665 1.60217 7.78581 1.60217 7.80905C1.60217 7.81725 1.59684 7.82398 1.5903 7.82398C1.58379 7.82398 1.57463 7.84137 1.56996 7.86263C1.5653 7.88388 1.55614 7.90128 1.54962 7.90128C1.54309 7.90128 1.53776 7.91461 1.53776 7.93091C1.53776 7.9472 1.53282 7.96605 1.5268 7.97278C1.52075 7.9795 1.50626 8.02019 1.49459 8.06316C1.47533 8.13402 1.47337 8.30755 1.47366 9.92475C1.47386 11.1374 1.47832 11.7247 1.4876 11.7597C1.49509 11.7881 1.50432 11.8272 1.50808 11.8467C1.51184 11.8662 1.52006 11.8821 1.52633 11.8821C1.53262 11.8821 1.53776 11.8966 1.53776 11.9143C1.53776 11.932 1.54292 11.9465 1.54925 11.9465C1.55556 11.9465 1.56471 11.9624 1.56956 11.9817C1.58045 12.0251 1.67794 12.1633 1.74901 12.2361C1.81111 12.2997 1.93941 12.3974 1.96082 12.3974C1.96903 12.3974 1.97575 12.4028 1.97575 12.4093C1.97575 12.4158 1.99314 12.425 2.0144 12.4296C2.03566 12.4343 2.05305 12.4435 2.05305 12.45C2.05305 12.4565 2.06638 12.4618 2.08268 12.4618C2.09897 12.4618 2.11782 12.4668 2.12454 12.4728C2.13128 12.4789 2.17195 12.4933 2.21492 12.505C2.28575 12.5243 2.45976 12.5263 4.07427 12.5263C5.72902 12.5263 5.8616 12.5247 5.94135 12.5037C5.98857 12.4913 6.02913 12.4768 6.03149 12.4715C6.03386 12.4662 6.0498 12.4618 6.06692 12.4618C6.08405 12.4618 6.09805 12.4565 6.09805 12.45C6.09805 12.4435 6.11544 12.4343 6.1367 12.4296C6.15795 12.425 6.17535 12.4158 6.17535 12.4093C6.17535 12.4028 6.18207 12.3974 6.19028 12.3974C6.20974 12.3974 6.33658 12.3019 6.39478 12.2435C6.45404 12.184 6.53743 12.0696 6.56901 12.0045C6.58276 11.9762 6.59836 11.951 6.60368 11.9487C6.60899 11.9463 6.61334 11.9315 6.61334 11.9158C6.61334 11.9001 6.61853 11.8818 6.62487 11.875C6.66859 11.8286 6.67036 11.7597 6.67426 9.94967C6.67864 7.91567 6.68715 8.08494 6.56863 7.84974C6.45408 7.62245 6.3154 7.49997 6.0272 7.3715C5.93548 7.33062 5.86972 7.32909 4.07555 7.32603C3.08716 7.32434 2.26979 7.32775 2.25916 7.33363ZM8.10767 7.33458C8.08996 7.34025 8.04069 7.3553 7.99818 7.36801C7.75616 7.44045 7.53814 7.62673 7.42633 7.85659C7.36557 7.98151 7.36228 7.98979 7.34488 8.06231C7.32612 8.14045 7.31461 11.7093 7.33303 11.7325C7.33926 11.7404 7.34833 11.7742 7.35319 11.8077C7.35803 11.8412 7.36746 11.872 7.37414 11.8761C7.38081 11.8803 7.38627 11.8978 7.38627 11.9151C7.38627 11.9324 7.39091 11.9465 7.39656 11.9465C7.40223 11.9465 7.41411 11.9666 7.42296 11.9911C7.43182 12.0156 7.46579 12.0721 7.49846 12.1167C7.55672 12.1962 7.69048 12.333 7.70999 12.333C7.71542 12.333 7.73552 12.3475 7.75464 12.3652C7.77374 12.3829 7.79723 12.3974 7.80682 12.3974C7.81642 12.3974 7.82427 12.4028 7.82427 12.4093C7.82427 12.4158 7.84166 12.425 7.86291 12.4296C7.88417 12.4343 7.90156 12.4435 7.90156 12.45C7.90156 12.4565 7.91323 12.4618 7.9275 12.4618C7.94176 12.4618 7.96351 12.4671 7.97581 12.4735C7.98811 12.48 8.02927 12.4945 8.06729 12.5058C8.12907 12.5241 8.32577 12.5262 9.92232 12.526C11.1367 12.5257 11.7247 12.5213 11.7598 12.512C11.7881 12.5045 11.8272 12.4953 11.8467 12.4915C11.8662 12.4878 11.8822 12.4796 11.8822 12.4733C11.8822 12.467 11.8966 12.4618 11.9144 12.4618C11.9321 12.4618 11.9466 12.4565 11.9466 12.45C11.9466 12.4435 11.964 12.4343 11.9852 12.4296C12.0065 12.425 12.0239 12.4158 12.0239 12.4093C12.0239 12.4028 12.0306 12.3974 12.0388 12.3974C12.0583 12.3974 12.1852 12.3023 12.2437 12.2437C12.3023 12.1851 12.3974 12.0583 12.3974 12.0388C12.3974 12.0306 12.4028 12.0238 12.4093 12.0238C12.4158 12.0238 12.425 12.0064 12.4296 11.9852C12.4343 11.9639 12.4435 11.9465 12.45 11.9465C12.4565 11.9465 12.4619 11.9325 12.4619 11.9154C12.4619 11.8983 12.4662 11.8823 12.4715 11.88C12.4768 11.8776 12.4913 11.837 12.5037 11.7898C12.5247 11.7101 12.5263 11.5775 12.5263 9.92263C12.5263 8.30802 12.5243 8.13399 12.505 8.06316C12.4934 8.02019 12.4789 7.97951 12.4728 7.97278C12.4668 7.96605 12.4619 7.95057 12.4619 7.93839C12.4619 7.91391 12.4223 7.83289 12.4071 7.82613C12.4018 7.82376 12.3974 7.81559 12.3974 7.80798C12.3974 7.78946 12.3012 7.66163 12.2437 7.60381C12.1789 7.53858 12.0438 7.44171 11.9911 7.42265C11.9666 7.4138 11.9466 7.40192 11.9466 7.39625C11.9466 7.39059 11.9324 7.38596 11.9151 7.38596C11.8978 7.38596 11.8802 7.38033 11.8759 7.37345C11.8717 7.36657 11.8393 7.35711 11.804 7.35242C11.7688 7.34775 11.7368 7.33888 11.733 7.33272C11.7243 7.31867 8.15173 7.32049 8.10767 7.33458ZM5.83978 8.00434C5.89913 8.04067 5.97056 8.11275 5.99244 8.15841C6.01268 8.20061 6.01432 8.33258 6.01432 9.9239C6.01432 11.8334 6.0212 11.6827 5.9297 11.7761C5.88038 11.8264 5.83241 11.8496 5.73735 11.869C5.65604 11.8857 2.4421 11.8803 2.359 11.8634C2.33243 11.858 2.31069 11.8484 2.31069 11.8421C2.31069 11.8357 2.30268 11.8306 2.29289 11.8306C2.26972 11.8306 2.16899 11.7298 2.16899 11.7067C2.16899 11.6969 2.16382 11.6889 2.15751 11.6889C2.15121 11.6889 2.14161 11.6671 2.13619 11.6406C2.13078 11.614 2.12414 10.8531 2.12145 9.94967C2.11648 8.27858 2.11698 8.25687 2.1631 8.15249C2.19577 8.07853 2.28683 8.00524 2.36866 7.98706C2.38283 7.98391 3.16252 7.98216 4.10131 7.98317C5.59373 7.98478 5.81217 7.98744 5.83978 8.00434ZM11.688 8.00434C11.8007 8.07408 11.8386 8.12617 11.868 8.2516C11.8893 8.34262 11.8878 11.4925 11.8663 11.6055C11.8576 11.6513 11.846 11.6889 11.8406 11.6889C11.8351 11.6889 11.8306 11.6969 11.8306 11.7067C11.8306 11.7165 11.8068 11.7484 11.7776 11.7775C11.7484 11.8067 11.7165 11.8306 11.7067 11.8306C11.6969 11.8306 11.6889 11.8351 11.6889 11.8405C11.6889 11.846 11.6514 11.8576 11.6055 11.8663C11.4909 11.888 8.32363 11.8893 8.24443 11.8676C8.16902 11.847 8.10767 11.8186 8.10767 11.8042C8.10767 11.7975 8.09898 11.7919 8.08835 11.7919C8.07772 11.7919 8.06903 11.7872 8.06903 11.7815C8.06903 11.7757 8.05888 11.7598 8.04648 11.7461C7.98202 11.6746 7.98529 11.772 7.98529 9.9239C7.98529 8.01055 7.97741 8.17277 8.07522 8.07495C8.12665 8.02351 8.16779 7.99803 8.21717 7.98706C8.23134 7.98391 9.01104 7.98216 9.94983 7.98317C11.4424 7.98478 11.6606 7.98744 11.688 8.00434ZM3.30906 8.91073C3.21873 8.94687 3.13515 9.00524 3.13515 9.03219C3.13515 9.03963 3.1308 9.04764 3.12549 9.05001C3.10081 9.06098 3.07074 9.15771 3.07074 9.22614C3.07074 9.34946 3.10571 9.40062 3.37368 9.66928C3.50464 9.80057 3.61179 9.91063 3.61179 9.91385C3.61179 9.91706 3.50122 10.0311 3.36608 10.1673C3.09743 10.438 3.07149 10.4758 3.07102 10.5969C3.07075 10.6673 3.1035 10.7742 3.12531 10.7742C3.13072 10.7742 3.13515 10.7819 3.13515 10.7913C3.13515 10.812 3.18882 10.8644 3.21005 10.8644C3.21846 10.8644 3.22532 10.8688 3.22532 10.8742C3.22532 10.896 3.33221 10.9288 3.40255 10.9285C3.52372 10.928 3.56149 10.9021 3.83218 10.6334C3.96836 10.4983 4.08218 10.3877 4.08515 10.3877C4.08811 10.3877 4.19796 10.4947 4.32924 10.6256C4.59804 10.8935 4.64972 10.9288 4.77327 10.9288C4.84169 10.9288 4.93842 10.8987 4.94939 10.874C4.95176 10.8687 4.95941 10.8644 4.96642 10.8644C4.98428 10.8644 5.00685 10.8398 5.04357 10.7803C5.08783 10.7087 5.11059 10.6301 5.10187 10.5792C5.08518 10.4816 5.07687 10.4521 5.06602 10.4521C5.05974 10.4521 5.0546 10.4441 5.0546 10.4342C5.0546 10.4244 4.94445 10.3051 4.80983 10.169C4.67522 10.033 4.56507 9.91747 4.56507 9.91239C4.56507 9.9073 4.67522 9.79224 4.80983 9.65672C4.94445 9.52119 5.0546 9.40123 5.0546 9.39012C5.0546 9.37902 5.05974 9.36994 5.06602 9.36994C5.0768 9.36994 5.08493 9.34131 5.10171 9.2443C5.11716 9.1549 5.0496 9.01836 4.95972 8.95732C4.89629 8.91424 4.80808 8.88852 4.75511 8.89768C4.65811 8.91446 4.62948 8.92259 4.62948 8.93337C4.62948 8.93966 4.6204 8.9448 4.6093 8.9448C4.59819 8.9448 4.47823 9.05495 4.34271 9.18957C4.20721 9.3242 4.09215 9.43435 4.08707 9.43435C4.08198 9.43435 3.96649 9.3242 3.83045 9.18957C3.6944 9.05495 3.57506 8.9448 3.56523 8.9448C3.55542 8.9448 3.54738 8.93966 3.54738 8.93337C3.54738 8.9062 3.36395 8.88877 3.30906 8.91073ZM8.84196 8.95305C8.76612 8.97861 8.68075 9.05069 8.65338 9.11228C8.61777 9.19234 8.61008 9.21981 8.61008 9.26687C8.61008 9.31392 8.61776 9.34136 8.65336 9.42147C8.67415 9.46825 8.74988 9.53778 8.80955 9.56488C8.85827 9.58701 8.92327 9.58839 9.92476 9.58866L10.9882 9.58895L11.0532 9.55657C11.1427 9.51196 11.1755 9.47286 11.2236 9.35323C11.2408 9.31024 11.2426 9.2111 11.2267 9.17973C11.2204 9.16743 11.2074 9.13997 11.1979 9.11872C11.1785 9.07584 11.1071 9.00036 11.0576 8.97056C11.0298 8.95384 10.8795 8.95092 9.94339 8.94888C9.34823 8.94759 8.85259 8.94946 8.84196 8.95305ZM8.85484 10.246C8.85484 10.2531 8.84035 10.2589 8.82264 10.2589C8.80492 10.2589 8.79043 10.2647 8.79043 10.2717C8.79043 10.2788 8.78172 10.2846 8.77108 10.2846C8.74794 10.2846 8.66161 10.3731 8.66161 10.3968C8.66161 10.406 8.65701 10.4135 8.65139 10.4135C8.63902 10.4135 8.61008 10.5173 8.61008 10.5616C8.61008 10.606 8.63902 10.7098 8.65139 10.7098C8.65701 10.7098 8.66161 10.7172 8.66161 10.7264C8.66161 10.7501 8.74794 10.8386 8.77108 10.8386C8.78172 10.8386 8.79043 10.8444 8.79043 10.8515C8.79043 10.8586 8.80492 10.8644 8.82264 10.8644C8.84035 10.8644 8.85484 10.8702 8.85484 10.8772C8.85484 10.8857 9.21983 10.8901 9.92406 10.8901C10.6283 10.8901 10.9933 10.8857 10.9933 10.8772C10.9933 10.8702 11.0078 10.8644 11.0255 10.8644C11.0432 10.8644 11.0577 10.8586 11.0577 10.8515C11.0577 10.8444 11.0664 10.8386 11.077 10.8386C11.1002 10.8386 11.1865 10.7501 11.1865 10.7264C11.1865 10.7172 11.1909 10.7098 11.1963 10.7098C11.227 10.7098 11.2537 10.4891 11.2252 10.4714C11.2181 10.467 11.2123 10.4522 11.2123 10.4385C11.2123 10.4247 11.2065 10.4135 11.1994 10.4135C11.1923 10.4135 11.1865 10.406 11.1865 10.3968C11.1865 10.3731 11.1002 10.2846 11.077 10.2846C11.0664 10.2846 11.0577 10.2788 11.0577 10.2717C11.0577 10.2647 11.0432 10.2589 11.0255 10.2589C11.0078 10.2589 10.9933 10.2531 10.9933 10.246C10.9933 10.2375 10.6283 10.2331 9.92406 10.2331C9.21983 10.2331 8.85484 10.2375 8.85484 10.246Z" fill="white"/>
</svg>
