<svg width="21" height="21" viewBox="0 0 21 21" fill="none" xmlns="http://www.w3.org/2000/svg">
<path d="M20.8672 16.9567C21.0729 17.3569 21.037 17.8846 20.778 18.2704C20.5702 18.5799 19.0526 20.1009 18.7519 20.3011C17.4473 21.1696 15.6424 21.2295 13.4758 20.476C11.0057 19.617 8.22347 17.7382 5.74372 15.2547C2.84148 12.348 0.779859 9.05231 0.18896 6.37485M20.8672 16.9567L1.11487 2.52117M20.8672 16.9567C20.7894 16.8053 20.2751 16.2672 18.8826 14.8802C17.222 13.2263 16.9268 12.9201 16.5912 12.8663C16.5012 12.8519 16.4082 12.8556 16.2852 12.8564C15.8201 12.8592 15.6516 12.9619 14.9111 13.6939M20.8672 16.9567L14.9111 13.6939M0.18896 6.37485L0.677213 6.2671M0.18896 6.37485L0.677213 6.2671M0.18896 6.37485C-0.180321 4.70146 -0.0073496 3.30083 0.699136 2.24338C0.886751 1.96257 2.40214 0.439929 2.70416 0.22875C2.80334 0.159369 2.96023 0.0778431 3.0528 0.0475223M0.677213 6.2671C0.326724 4.67887 0.507554 3.43021 1.11487 2.52117M0.677213 6.2671C1.23977 8.81615 3.23126 12.0307 6.09754 14.9014C8.54128 17.3488 11.2614 19.1765 13.64 20.0037C15.7304 20.7307 17.3526 20.632 18.4748 19.8849C18.4752 19.8846 18.4781 19.8827 18.4839 19.8783C18.4902 19.8736 18.4985 19.8671 18.509 19.8587C18.5302 19.8417 18.5568 19.8194 18.589 19.7915C18.6534 19.7356 18.7333 19.663 18.8247 19.5776C19.0071 19.407 19.2272 19.1927 19.4458 18.9736C19.6645 18.7544 19.8788 18.5333 20.0501 18.3494C20.2331 18.1528 20.3373 18.0297 20.3628 17.9917L20.3628 17.9917C20.5226 17.7537 20.5412 17.4253 20.4268 17.1939M3.0528 0.0475223L3.2084 0.522697C3.2084 0.522697 3.2084 0.522696 3.2084 0.522696C3.20833 0.522721 3.20812 0.52279 3.20777 0.52291L3.20584 0.523599L3.19887 0.526255C3.1929 0.528615 3.18525 0.531804 3.17602 0.535901C3.15736 0.544177 3.13529 0.554801 3.11154 0.567143C3.06201 0.592889 3.01783 0.61952 2.99076 0.638454L2.99068 0.638512C2.95099 0.666262 2.82731 0.773504 2.63293 0.95686C2.45027 1.12915 2.23055 1.34421 2.01314 1.56266C1.79571 1.78113 1.58316 2.00041 1.41462 2.18099C1.3302 2.27144 1.25871 2.35016 1.20394 2.4131C1.17655 2.44457 1.15479 2.47043 1.13843 2.49071C1.12254 2.51042 1.11587 2.51977 1.11497 2.52103C1.1149 2.52113 1.11486 2.52118 1.11487 2.52117M3.0528 0.0475223C3.31995 -0.0399526 3.79424 -0.00249266 4.04149 0.125643L3.20843 0.522686L3.0528 0.0475223ZM1.11487 2.52117C1.11487 2.52117 1.11487 2.52117 1.11487 2.52117L6.11205 6.68737C5.77202 7.27572 5.68076 8.03506 5.87988 8.67985M20.4268 17.1939C20.4254 17.191 20.4239 17.1881 20.4225 17.1853L20.4225 17.1852C20.4253 17.1907 20.427 17.1938 20.4268 17.1939ZM20.4268 17.1939C20.4262 17.1943 20.4065 17.165 20.3421 17.0908C20.2692 17.0065 20.1606 16.8886 20.0064 16.7273C19.6988 16.4054 19.226 15.9279 18.5297 15.2345C18.4762 15.1811 18.4241 15.1292 18.3734 15.0788C17.4124 14.1214 16.9729 13.6836 16.7049 13.4748C16.5772 13.3753 16.5328 13.3646 16.5229 13.3622L16.5227 13.3621C16.4936 13.3551 16.4711 13.3552 16.3184 13.3562L16.2883 13.3564C16.1093 13.3575 16.0504 13.3746 15.9616 13.4287C15.8278 13.5103 15.6421 13.6743 15.2626 14.0494C15.2626 14.0494 15.2626 14.0494 15.2626 14.0495L14.9111 13.6939M14.9111 13.6939C14.5727 14.0284 14.2036 14.3601 14.0908 14.4311M14.0908 14.4311C13.6332 14.7191 12.9873 14.8023 12.4642 14.6407M14.0908 14.4311L14.3571 14.8543C14.3571 14.8543 14.3571 14.8543 14.3571 14.8543C13.7743 15.2211 12.977 15.3224 12.3165 15.1184M14.0908 14.4311L12.3165 15.1184M12.4642 14.6407C12.3205 14.5963 11.9724 14.428 11.6907 14.2668C9.95433 13.2731 8.45395 11.8881 7.29258 10.2068M12.4642 14.6407L12.3165 15.1184M12.4642 14.6407L12.3166 15.1184L12.3165 15.1184M7.29258 10.2068L6.88119 10.491C6.67506 10.1926 6.45622 9.83529 6.27663 9.51364C6.105 9.20626 5.94379 8.88683 5.87988 8.67985M7.29258 10.2068L6.88119 10.491C8.08409 12.2324 9.63971 13.6692 11.4424 14.7008L11.4424 14.7008C11.7281 14.8643 12.1166 15.0566 12.3165 15.1184M7.29258 10.2068L12.3165 15.1184M5.87988 8.67985L6.35763 8.53234L5.87989 8.67988C5.87989 8.67987 5.87988 8.67986 5.87988 8.67985ZM6.25289 6.49305C6.20762 6.54849 6.15033 6.62113 6.11211 6.68727L3.51523 0.504175C3.65368 0.515114 3.75668 0.544112 3.80332 0.565616C3.80567 0.567978 3.83595 0.589178 3.90778 0.65154C3.99264 0.725217 4.11126 0.834545 4.27298 0.989237C4.5957 1.29794 5.07321 1.77108 5.76376 2.46479C5.81754 2.51882 5.86982 2.57132 5.92063 2.62236C6.87818 3.58415 7.31594 4.02385 7.5242 4.29159C7.62286 4.41844 7.63312 4.46215 7.63518 4.47091L7.63526 4.47125C7.64187 4.49924 7.64157 4.52056 7.63939 4.6742L7.63899 4.70315C7.63609 4.91014 7.62 4.95791 7.57403 5.03372C7.49722 5.16037 7.33842 5.33765 6.95006 5.73218C6.76658 5.91854 6.58611 6.11123 6.44212 6.27285C6.37028 6.35348 6.30541 6.42874 6.25289 6.49305Z" stroke="#2F3339"/>
</svg>
