<svg width="38" height="38" viewBox="0 0 38 38" fill="none" xmlns="http://www.w3.org/2000/svg">
<path fill-rule="evenodd" clip-rule="evenodd" d="M29.708 1.10441C27.0858 1.60101 24.9871 3.48121 24.1863 6.05131C23.9449 6.82578 23.8533 8.38097 24.0036 9.15222C24.414 11.2592 25.9039 14.2805 27.4889 16.2202C28.2415 17.1412 29.2641 18.0467 29.9113 18.3651C30.9074 18.8552 31.7701 18.7004 32.8649 17.8353C34.8466 16.2696 37.0775 12.6151 37.8029 9.74634C38.0776 8.66022 38.0638 7.15696 37.77 6.14283C37.1755 4.09148 35.8205 2.51866 33.872 1.61846C32.6618 1.05925 31.018 0.856323 29.708 1.10441ZM32.8246 2.7723C34.9859 3.56996 36.3807 5.39754 36.5645 7.67301C36.6933 9.26745 35.8405 11.6006 34.269 13.9526C32.7804 16.1809 31.5667 17.311 30.8141 17.1698C30.3062 17.0746 28.9834 15.8529 28.2603 14.8112C27.3905 13.5585 27.1501 13.177 26.7489 12.4126C25.8043 10.6128 25.4887 9.62546 25.4215 8.26079C25.3393 6.59324 25.8485 5.28709 27.0491 4.08557C27.7743 3.35973 28.7001 2.83396 29.6961 2.58231C30.5494 2.36662 31.9572 2.45215 32.8246 2.7723ZM29.8619 4.70157C27.0171 5.71414 26.595 9.4867 29.1466 11.0974C29.6335 11.4048 30.2604 11.57 30.9618 11.5758C33.6112 11.5978 35.3084 8.83841 34.1196 6.44154C33.8768 5.95206 33.1386 5.19418 32.6736 4.95695C31.7929 4.50759 30.6885 4.40729 29.8619 4.70157ZM31.6493 6.09343C32.4062 6.30408 33.0362 7.20212 33.0377 8.07297C33.0388 8.62401 32.8963 8.99332 32.515 9.42757C31.3189 10.7899 29.0847 10.0544 28.8971 8.23656C28.8118 7.41026 29.3318 6.53923 30.1297 6.17166C30.5111 5.996 31.1761 5.96179 31.6493 6.09343ZM8.76865 8.10128C5.32223 8.43402 2.11017 10.789 0.727087 13.9972C0.103883 15.4427 0.00176649 15.9914 2.98188e-05 17.9041C-0.00170685 19.7443 0.0710596 20.26 0.575215 21.9853C1.75632 26.0268 4.24957 30.23 6.58314 32.1141C8.58378 33.7294 10.3887 33.8896 12.3295 32.6242C13.0031 32.1851 14.5524 30.64 15.1896 29.7721C17.1393 27.1161 18.7911 23.4485 19.4056 20.4105C20.1553 16.7045 19.2642 13.4514 16.8312 11.0122C16.0186 10.1974 15.4178 9.7486 14.4513 9.23393C12.6841 8.29292 10.7587 7.9092 8.76865 8.10128ZM10.7099 9.57163C12.7667 9.82952 14.4061 10.6234 15.7833 12.0284C16.9792 13.2485 17.8507 14.9086 18.0992 16.44C18.2263 17.2237 18.2107 18.9452 18.0685 19.8211C17.5155 23.228 15.4875 27.3544 13.0784 29.9747C12.0103 31.1365 10.9027 31.8847 10.0489 32.0212C7.99687 32.3494 4.29186 28.0682 2.49085 23.2878C1.128 19.6703 1.01086 16.8426 2.12493 14.4575C3.53051 11.4484 6.2695 9.65004 9.68266 9.49513C9.85112 9.48749 10.3133 9.52196 10.7099 9.57163ZM9.33307 13.0061C8.02579 13.2201 7.10067 13.6558 6.35025 14.411C5.63561 15.1303 5.24347 15.786 4.98219 16.6986C4.84134 17.1905 4.84178 18.7037 4.98288 19.2066C5.34897 20.5113 6.37048 21.7619 7.55672 22.3578C8.65915 22.9116 10.1233 23.0432 11.2434 22.6892C12.8457 22.1829 14.1785 20.8041 14.58 19.2375C14.7507 18.5714 14.755 17.3174 14.5887 16.6923C14.1505 15.046 12.7685 13.6334 11.1566 13.1842C10.6444 13.0415 9.68778 12.9481 9.33307 13.0061ZM10.3721 14.5231C13.0846 14.9632 14.2081 18.2408 12.3506 20.2953C11.319 21.4362 9.70524 21.7495 8.31903 21.078C6.12761 20.0164 5.63023 17.2032 7.33286 15.5005C7.98038 14.853 8.61487 14.5722 9.72382 14.4422C9.77158 14.4366 10.0633 14.473 10.3721 14.5231ZM26.6442 19.7561C24.7858 21.1286 23.4428 22.9935 23.2108 24.5235C22.9933 25.9576 23.4042 26.9705 24.6998 28.1939C26.9287 30.2984 27.8662 31.4132 28.3515 32.5365C28.6121 33.1395 28.6285 33.9563 28.3868 34.2868C27.9695 34.857 27.2229 35.2028 25.7486 35.5087C24.7809 35.7095 20.9239 35.7096 19.6228 35.5089C17.4092 35.1674 16.006 34.8362 14.6922 34.3448C14.3226 34.2066 14.0225 34.1448 13.8867 34.1788C13.3198 34.3212 13.1292 35.0085 13.5487 35.3974C13.8073 35.637 15.5152 36.2027 16.9407 36.5209C19.8563 37.1717 23.0825 37.3296 25.788 36.9539C28.1034 36.6322 29.4928 35.7729 29.9209 34.3974C30.1294 33.7274 30.1282 33.4653 29.9129 32.6233C29.57 31.283 28.3716 29.5891 26.6867 28.0636C25.2455 26.7588 25.0808 26.5876 24.8718 26.1787C24.6976 25.8376 24.6597 25.6371 24.6619 25.0678C24.6642 24.453 24.6979 24.3083 24.9553 23.8088C25.4455 22.8572 26.2603 21.917 27.3076 21.0945C27.618 20.8508 27.9395 20.5705 28.0221 20.4717C28.3814 20.0413 28.0357 19.3803 27.4513 19.3803C27.2358 19.3803 27.0118 19.4845 26.6442 19.7561Z" fill="#2F3339"/>
</svg>
