<svg width="60" height="60" viewBox="0 0 60 60" fill="none" xmlns="http://www.w3.org/2000/svg">
<rect width="60" height="60" rx="30" fill="white"/>
<g clip-path="url(#clip0_70_26993)">
<path fill-rule="evenodd" clip-rule="evenodd" d="M41.4916 17.6142C41.9163 17.4355 42.3812 17.3738 42.8378 17.4357C43.2945 17.4976 43.7262 17.6807 44.088 17.966C44.4499 18.2514 44.7287 18.6285 44.8953 19.0581C45.062 19.4878 45.1104 19.9542 45.0356 20.4089L41.1375 44.0538C40.7594 46.3346 38.2569 47.6425 36.1651 46.5064C34.4155 45.556 31.8167 44.0916 29.4792 42.5636C28.3105 41.7988 24.7303 39.3496 25.1703 37.6067C25.5484 36.1166 31.5641 30.5169 35.0016 27.1877C36.3508 25.8797 35.7355 25.1252 34.1422 26.3283C30.1856 29.3155 23.8331 33.8582 21.7328 35.1369C19.88 36.2644 18.9141 36.4569 17.759 36.2644C15.6519 35.9138 13.6976 35.3707 12.1026 34.7089C9.94733 33.8152 10.0522 30.8521 12.1009 29.9892L41.4916 17.6142Z" fill="#2F3339"/>
</g>
<defs>
<clipPath id="clip0_70_26993">
<rect width="40" height="37.5" fill="white" transform="translate(7.5 11.25)"/>
</clipPath>
</defs>
</svg>
