<svg width="17" height="17" viewBox="0 0 17 17" fill="none" xmlns="http://www.w3.org/2000/svg">
<g clip-path="url(#clip0_70_28810)">
<path fill-rule="evenodd" clip-rule="evenodd" d="M4.48564 3.17037V6.34078L2.68052 6.35096L0.875391 6.36117L0.807202 6.44824C0.741226 6.53246 0.739014 6.64069 0.739014 9.78979C0.739014 13.0264 0.739406 13.0448 0.812983 13.1414L0.886916 13.2386H8.46841H16.0499L16.1375 13.1481L16.2251 13.0576V9.79642C16.2251 6.6408 16.2229 6.53246 16.1569 6.44824L16.0887 6.36117L14.2836 6.35096L12.4784 6.34078V3.17037V0H8.48204H4.48564V3.17037ZM13.3705 0.700651V0.921909H13.1564H12.9423V1.18004V1.43818H13.1564H13.3705V1.67787V1.91757H13.6203H13.87V1.67787V1.43818H14.1036H14.3372L14.3266 1.18926L14.3161 0.940347L14.0931 0.929358L13.87 0.918406V0.698881V0.479393H13.6203H13.3705V0.700651ZM6.98339 2.12039C6.98339 3.00266 6.99263 3.72451 7.00394 3.72451C7.01522 3.72451 7.21483 3.62421 7.44751 3.50163L7.87056 3.27871L8.19423 3.44672L8.5179 3.61473L8.75869 3.49005C9.14737 3.28882 9.11858 3.28705 9.53288 3.53733C9.73688 3.66057 9.91308 3.76139 9.92439 3.76139C9.93573 3.76139 9.94501 3.03124 9.94501 2.13883V0.516269H10.962H11.9789V3.4295V6.34273H8.48204H4.98519V3.4295V0.516269H5.98429H6.98339V2.12039ZM9.40978 1.69867V2.88108L9.2729 2.80157L9.13599 2.72206L8.80903 2.89177L8.48204 3.06147L8.15277 2.89055L7.82349 2.71967L7.65686 2.81643C7.56522 2.86968 7.48059 2.91323 7.46878 2.91323C7.45693 2.91323 7.44726 2.37392 7.44726 1.71475V0.516269H8.42852H9.40978V1.69867ZM2.84426 3.22668V3.65411L3.08512 3.64324L3.32597 3.63232V3.22668V2.82104L3.08512 2.81013L2.84426 2.79925V3.22668ZM2.84426 4.81406V5.64544L3.08512 5.63456L3.32597 5.62364L3.33557 4.80314L3.34517 3.98265H3.09471H2.84426V4.81406ZM3.20108 8.48156C3.20108 9.37397 3.20893 10.1041 3.21857 10.1041C3.22817 10.1041 3.43676 10.0008 3.68211 9.87449L4.12821 9.64486L4.43233 9.80074C4.59961 9.88648 4.76068 9.95662 4.79026 9.95662C4.81984 9.95662 4.96995 9.8912 5.12389 9.81121L5.40371 9.66581L5.77077 9.88496C5.97262 10.0055 6.15143 10.1041 6.16809 10.1041C6.18475 10.1041 6.19838 9.37397 6.19838 8.48156V6.859H7.19748H8.19659V9.79067V12.7223H4.71757H1.23856V9.79067V6.859H2.21982H3.20108V8.48156ZM5.69883 8.05984V9.26068L5.55478 9.17701L5.41077 9.09338L5.10826 9.24841C4.94187 9.3337 4.78212 9.40347 4.75326 9.40347C4.72439 9.40347 4.56428 9.33352 4.39747 9.248L4.09417 9.09257L3.89742 9.19232L3.70063 9.29203V8.07552V6.859H4.69973H5.69883V8.05984ZM10.6943 8.47946V10.0999L11.145 9.87482L11.5956 9.64969L11.9211 9.81571L12.2465 9.98177L12.5629 9.82589L12.8792 9.66998L13.2407 9.88707C13.4394 10.0064 13.6142 10.1041 13.629 10.1041C13.6438 10.1041 13.656 9.37397 13.656 8.48156V6.859H14.6907H15.7255V9.79067V12.7223H12.2465H8.7675V9.79067V6.859H9.73092H10.6943V8.47946ZM13.1564 8.05859V9.25818L13.0153 9.17425L12.8742 9.09035L12.5688 9.24689C12.4008 9.333 12.2397 9.40347 12.2108 9.40347C12.182 9.40347 12.0226 9.33389 11.8567 9.24889L11.5551 9.09426L11.3745 9.19586L11.1939 9.29745V8.07821V6.859H12.1751H13.1564V8.05859ZM0.739014 15.2242C0.739014 16.7795 0.742903 16.8816 0.804276 16.939C0.862224 16.9932 1.00074 16.9999 2.04423 16.9994C2.69029 16.9991 3.23659 16.9867 3.25817 16.9718C3.35316 16.9063 3.37949 16.7648 3.37949 16.3202V15.8568H5.26794H7.15641L7.16801 16.3762C7.17839 16.8397 7.18707 16.9011 7.2489 16.9477C7.30539 16.9903 7.53668 17 8.50117 17C9.59386 17 9.6886 16.9949 9.74216 16.9338C9.7884 16.881 9.80214 16.7673 9.81013 16.3714L9.82012 15.8753L11.7202 15.8657L13.6203 15.8562V16.3671C13.6203 16.8152 13.6283 16.8854 13.6855 16.939C13.7435 16.9932 13.8831 17 14.9344 17C16.0705 17 16.1209 16.997 16.1894 16.9262C16.2586 16.8547 16.2608 16.8033 16.2608 15.2115V13.5705H8.49988H0.739014V15.2242ZM8.25985 14.7044L8.25011 15.359L4.74434 15.3684L1.23856 15.3778V14.7139V14.0499H4.75408H8.26959L8.25985 14.7044ZM15.7612 14.7137V15.3774H12.2644H8.7675V14.7137V14.0499H12.2644H15.7612V14.7137ZM2.87994 16.1703V16.4837H2.05925H1.23856V16.1703V15.8568H2.05925H2.87994V16.1703ZM9.30273 16.1703V16.4837H8.48204H7.66135V16.1703V15.8568H8.48204H9.30273V16.1703ZM15.7612 16.1703V16.4837H14.9405H14.1198V16.1703V15.8568H14.9405H15.7612V16.1703Z" fill="white"/>
</g>
<defs>
<clipPath id="clip0_70_28810">
<rect width="17" height="17" fill="white"/>
</clipPath>
</defs>
</svg>
