<svg width="43" height="28" viewBox="0 0 43 28" fill="none" xmlns="http://www.w3.org/2000/svg">
<path fill-rule="evenodd" clip-rule="evenodd" d="M0.909108 3.02244C0.655878 3.07214 0.138389 3.58011 0.0578847 3.85809C0.00722486 4.03309 -0.00924821 6.52218 0.00481248 11.8714L0.0252832 19.6308L0.213379 19.8774C0.523335 20.2837 0.833015 20.4324 1.44328 20.4677L1.97903 20.4987L2.00157 21.3805C2.02335 22.2325 2.03114 22.2724 2.23088 22.5556C2.34461 22.717 2.57434 22.9211 2.74141 23.0093C3.01118 23.1518 3.13897 23.1697 3.88308 23.1697H4.72093L4.91572 23.6694C5.13083 24.2212 5.26289 24.4228 5.68774 24.8477C6.09957 25.2595 6.30704 25.3965 6.83535 25.6056C8.05373 26.0878 9.36062 25.8256 10.3283 24.9047L10.7392 24.5137L10.9828 24.7803C11.484 25.3288 12.37 25.7658 13.1241 25.8361C14.6436 25.978 16.1623 24.9424 16.6049 23.4626L16.6925 23.1697H24.539C32.0134 23.1697 32.3856 23.1755 32.3856 23.2922C32.3856 23.3596 32.4945 23.642 32.6275 23.9197C33.4021 25.536 35.2637 26.2613 36.8906 25.5805C38.014 25.1105 38.7061 24.2175 38.9429 22.9324L39.0262 22.4804L40.4445 22.48C41.2245 22.4798 41.9724 22.4492 42.1064 22.412C42.3828 22.3352 42.8179 21.9215 42.9269 21.6316C42.9744 21.5056 43 20.3569 43 18.3527C43 15.6906 42.9847 15.223 42.8884 14.9403C42.8077 14.7035 42.6128 14.4405 42.1845 13.9905L41.5923 13.3681L40.7526 10.8458L39.9129 8.32367L40.1124 8.13729C40.4236 7.8465 40.3567 7.28442 39.9909 7.11776C39.8758 7.0653 38.8485 7.04125 36.7246 7.04125H33.6262V5.59582C33.6262 4.23035 33.6173 4.13013 33.465 3.78578C33.3489 3.52325 33.2187 3.36355 32.9997 3.21515L32.6957 3.00914L16.8774 3.00107C8.17738 2.99666 0.991611 3.00624 0.909108 3.02244ZM32.2997 11.7109L32.3172 19.1031H31.7053C30.9328 19.1031 30.7076 19.1488 30.4911 19.3495C30.2438 19.5786 30.2461 20.0455 30.4955 20.2801C30.6662 20.4406 30.717 20.448 31.7961 20.4689L32.919 20.4906L32.6857 20.9514C32.5572 21.2048 32.4275 21.5052 32.3973 21.6189L32.3423 21.8257H24.5323H16.7223L16.527 21.3173C16.4196 21.0377 16.284 20.7561 16.2255 20.6916C16.1671 20.627 16.1193 20.5533 16.1193 20.5279C16.1193 20.5024 18.8441 20.4816 22.1744 20.4816C26.4282 20.4816 28.2947 20.4589 28.4486 20.4052C28.8917 20.2508 28.9871 19.6462 28.6225 19.3037L28.4457 19.1376L14.8386 19.1195L1.23147 19.1015V11.7388C1.23147 7.68935 1.25222 4.35538 1.27758 4.33002C1.30295 4.30472 8.28932 4.29176 16.8029 4.30134L32.2822 4.31871L32.2997 11.7109ZM38.7365 8.93669C39.0311 9.80679 39.2039 9.71974 37.1353 9.74331L35.3372 9.76379L35.1681 9.9605L34.999 10.1572L35.019 12.2035L35.0392 14.2498L35.2625 14.5316C35.693 15.0749 35.6525 15.0684 38.7486 15.0912L41.4931 15.1115L41.6247 15.4014C41.7264 15.6254 41.7567 15.852 41.7578 16.3978L41.7593 17.1043H41.4578C40.9893 17.1043 40.7424 17.175 40.5541 17.3634C40.3143 17.6032 40.322 17.9323 40.5739 18.2143C40.7483 18.4094 40.8152 18.4338 41.2646 18.4659L41.7622 18.5015L41.7436 19.819L41.7249 21.1364L40.2347 21.1549L38.7446 21.1735L38.4618 20.7396C37.9743 19.9913 37.4234 19.5709 36.59 19.3112C36.1558 19.1758 35.8773 19.1448 34.8496 19.1173L33.6262 19.0846V13.7168V8.3491L36.088 8.36716L38.5499 8.38529L38.7365 8.93669ZM39.8632 12.2973C40.0903 12.9889 40.2864 13.5935 40.299 13.6408C40.317 13.7083 39.8876 13.727 38.3181 13.727H36.3143V12.3829V11.0389L37.8823 11.0394L39.4504 11.04L39.8632 12.2973ZM3.19583 16.4642C3.12001 16.4825 2.97272 16.5777 2.86844 16.6759C2.53009 16.9946 2.66028 17.5637 3.10726 17.7194C3.256 17.7713 7.36152 17.7935 16.7865 17.7935C28.0663 17.7935 30.2902 17.7781 30.4805 17.6986C30.6249 17.6383 30.7507 17.5128 30.8261 17.354C30.9361 17.1221 30.9366 17.0875 30.8327 16.8684C30.5998 16.3778 31.7461 16.4141 16.7981 16.423C9.39267 16.4275 3.27165 16.446 3.19583 16.4642ZM5.17294 20.7828C5.06783 20.9484 4.92219 21.2596 4.8492 21.4743L4.71659 21.8646L4.02514 21.8452L3.33368 21.8257L3.31397 21.1536L3.29426 20.4816H4.3291H5.36393L5.17294 20.7828ZM8.88242 20.6601C9.34532 20.9125 9.53851 21.0913 9.77817 21.4889C10.0039 21.8635 10.0194 21.927 10.0191 22.4778C10.0186 23.1478 9.92704 23.3947 9.49798 23.8821C8.97678 24.4742 7.95758 24.6877 7.21767 24.3595C6.86236 24.202 6.39822 23.7735 6.22956 23.4473C5.9316 22.8712 5.96207 21.9739 6.29732 21.4502C6.54827 21.0583 7.02765 20.6741 7.42879 20.5434C7.73495 20.4437 8.61513 20.5144 8.88242 20.6601ZM13.9951 20.5529C14.4159 20.6697 14.8706 21.0349 15.1431 21.475C15.3853 21.866 15.3955 21.9079 15.3955 22.5089C15.3955 23.0761 15.3767 23.1674 15.1954 23.4757C14.9595 23.8771 14.7339 24.0995 14.3777 24.2816C13.1703 24.8989 11.6765 24.1929 11.4441 22.895C11.2871 22.0187 11.6212 21.2448 12.3596 20.7739C12.5095 20.6783 12.7111 20.576 12.8076 20.5468C13.0652 20.4686 13.7034 20.4718 13.9951 20.5529ZM36.5624 20.6872C37.3932 21.1838 37.7716 21.9515 37.6262 22.8449C37.3425 24.5881 34.9646 25.1199 33.9863 23.6589C33.2266 22.5245 33.7025 21.0542 34.9839 20.577C35.3867 20.427 36.2249 20.4855 36.5624 20.6872ZM7.66679 21.9823C7.31796 22.2648 7.28225 22.5915 7.56554 22.9085C7.97343 23.3651 8.67537 23.1103 8.67537 22.5057C8.67537 22.0018 8.04594 21.6751 7.66679 21.9823ZM12.9823 22.0678C12.5728 22.4953 12.8391 23.1321 13.4273 23.1321C13.8133 23.1321 14.0515 22.8969 14.0515 22.5158C14.0515 21.9146 13.3933 21.6388 12.9823 22.0678ZM35.1899 22.0535C34.8791 22.3779 34.9547 22.8622 35.3479 23.0656C35.6525 23.2231 35.8224 23.1929 36.0799 22.9353C36.3753 22.64 36.3806 22.423 36.1003 22.1038C35.8187 21.7829 35.4676 21.7636 35.1899 22.0535Z" fill="#2F3339"/>
</svg>
