<svg width="57" height="57" viewBox="0 0 57 57" fill="none" xmlns="http://www.w3.org/2000/svg">
<path fill-rule="evenodd" clip-rule="evenodd" d="M6.51089 0H5.21544V1.26667V22.8V24.0667V25.3333V44.3333H2.62485H1.33768L1.32942 45.5919L1.2962 50.6586L1.28784 51.9333H2.59162H2.63313L2.65809 55.7414L2.66635 57H3.95352H11.693H12.9885V55.7333V51.9333H23.3521V55.7333V57H24.6476H32.4203H33.7157V55.7333V51.9333H44.0794V55.7333V57H45.3748H53.1144H54.4098V55.7333V51.9333H54.443H55.7385V50.6667V45.6V44.3333H54.443H51.8518V25.3333V24.0667V22.8V1.26667V0H50.5564H44.0791H42.7837H36.3064H35.0109H29.8291H28.5337H27.2382H22.0564H20.7609H14.2837H12.9882H6.51089ZM27.2382 2.53333H22.0564V6.33333V7.6H20.7609H14.2837H12.9882V6.33333V2.53333H7.80635V22.8H12.9882H14.2837H20.7609H22.0564H27.2382V2.53333ZM27.2382 25.3333H22.0564V29.1333V30.4H20.7609H14.2837H12.9882V29.1333V25.3333H7.80635V44.3333H27.2382V25.3333ZM29.8291 2.53333V22.8H35.0109H36.3064H42.7837H44.0791H49.2609V2.53333H44.0791V6.33333V7.6H42.7837H36.3064H35.0109V6.33333V2.53333H29.8291ZM37.6018 2.53333V5.06667H41.4882V2.53333H37.6018ZM49.2609 25.3333H44.0791V29.1333V30.4H42.7837H36.3064H35.0109V29.1333V25.3333H29.8291V44.3333H49.2609V25.3333ZM37.6018 25.3333V27.8667H41.4882V25.3333H37.6018ZM50.5564 46.8667H51.8518H53.1476V49.4H53.1144H51.8189V50.6667V54.4667H46.6703V50.6667V49.4H45.3748H32.4203H31.1248V50.6667V54.4667H25.943V50.6667V49.4H24.6476H11.693H10.3976V50.6667V54.4667H5.2407L5.21572 50.6586L5.20747 49.4H3.9203H3.89542L3.91203 46.8667H5.21544H6.51089H27.2382H28.5337H29.8291H50.5564ZM15.5791 2.53333H19.4655V5.06667H15.5791V2.53333ZM19.4655 25.3333H15.5791V27.8667H19.4655V25.3333Z" fill="#2F2FC0"/>
</svg>
