<svg width="269" height="77" viewBox="0 0 269 77" fill="none" xmlns="http://www.w3.org/2000/svg">
<g clip-path="url(#clip0_70_26932)">
<mask id="mask0_70_26932" style="mask-type:luminance" maskUnits="userSpaceOnUse" x="0" y="0" width="269" height="77">
<path d="M269 0H0V77H269V0Z" fill="white"/>
</mask>
<g mask="url(#mask0_70_26932)">
<path d="M23.187 31.4809C27.568 31.4262 31.8778 32.5743 35.6303 34.7959C39.2586 36.9165 42.1735 40.0361 44.0139 43.7685L34.9784 47.051C33.8467 44.9997 32.1698 43.2884 30.1266 42.0988C28.0245 40.8866 25.6243 40.2641 23.187 40.2995C21.3914 40.2463 19.6046 40.5678 17.9448 41.2425C16.285 41.9174 14.7896 42.9302 13.5574 44.2143C11.1103 46.8916 9.75677 50.3628 9.75677 53.9608C9.75677 57.5588 11.1103 61.03 13.5574 63.7075C14.7889 64.993 16.2839 66.0073 17.9438 66.6835C19.6037 67.3598 21.3908 67.6824 23.187 67.6304C25.6243 67.6657 28.0245 67.0433 30.1266 65.8309C32.1698 64.6415 33.8467 62.93 34.9784 60.8787L44.0139 64.1614C42.1755 67.8949 39.2601 71.0152 35.6303 73.1338C31.8778 75.3555 27.568 76.5037 23.187 76.4489C16.5417 76.4489 11.016 74.3036 6.60964 70.0134C2.37066 65.7199 0 59.9741 0 53.9933C0 48.0124 2.37066 42.2666 6.60964 37.9733C8.78462 35.8493 11.3743 34.1793 14.2231 33.0636C17.0719 31.9481 20.1209 31.4096 23.187 31.4809Z" fill="#2F3339"/>
<path d="M54.7575 75.6868H44.9961L63.7271 32.2507H71.3927L90.132 75.6868H80.3704L77.1606 68.0272H57.9675L54.7575 75.6868ZM73.6867 59.7274L67.5971 45.3163L61.5073 59.7274H73.6867Z" fill="#2F3339"/>
<path d="M93.9268 32.2506H114.49C116.541 32.1781 118.588 32.5045 120.511 33.2112C122.434 33.9179 124.196 34.9907 125.695 36.368C127.155 37.6624 128.314 39.2501 129.095 41.0234C129.875 42.7967 130.258 44.714 130.217 46.6456C130.247 49.3194 129.485 51.9442 128.022 54.1997C126.575 56.4361 124.52 58.2304 122.089 59.3789L131.851 75.6623H121.437L112.658 61.0729H103.292V75.6623H93.9268V32.2506ZM114.49 40.7449H103.292V52.6516H114.49C115.293 52.6784 116.094 52.5399 116.839 52.2454C117.585 51.9511 118.261 51.5068 118.822 50.9412C119.385 50.3793 119.827 49.7112 120.12 48.9772C120.414 48.243 120.553 47.4581 120.53 46.6698C120.556 45.8848 120.418 45.1027 120.124 44.3722C119.831 43.6414 119.387 42.9779 118.822 42.4225C118.256 41.8672 117.581 41.4315 116.837 41.143C116.093 40.8544 115.297 40.7189 114.498 40.7449H114.49Z" fill="#2F3339"/>
<path d="M164.288 42.4715C166.238 43.9745 167.745 45.9609 168.653 48.2263C169.386 49.8679 169.765 51.6412 169.765 53.4338C169.765 55.2265 169.386 56.9996 168.653 58.6415C167.938 60.2952 166.89 61.79 165.571 63.0353C164.252 64.2806 162.69 65.2508 160.979 65.8876C157.611 67.338 153.8 67.4456 150.351 66.1875C148.699 65.5767 147.198 64.6288 145.946 63.4062C144.695 62.1838 143.721 60.7145 143.09 59.0954C142.028 56.62 141.768 53.8831 142.347 51.2575C142.875 48.7017 144.275 46.3996 146.316 44.7328L151.391 56.9475L158.817 53.9808L149.741 32.0967C149.543 32.1777 149.155 32.2994 148.586 32.4615C148.016 32.6235 147.645 32.7289 147.488 32.7937C141.332 35.3549 137.069 39.4076 134.698 44.9516C132.871 49.0835 132.343 53.6576 133.183 58.0863C134.023 62.5151 136.192 66.5958 139.412 69.8038C142.632 73.0118 146.755 75.2005 151.251 76.0887C155.747 76.9767 160.411 76.5234 164.643 74.787C167.495 73.7259 170.089 72.0914 172.261 69.988C174.432 67.8845 176.132 65.3587 177.251 62.5725C179.595 56.8664 179.507 50.9792 176.987 44.911C176.467 44.911 175.939 44.9516 175.403 44.9516C171.548 45.0221 167.734 44.171 164.288 42.4715Z" fill="#2F2FC0"/>
<path d="M167.135 33.4424C167.73 33.9121 168.368 34.3271 169.041 34.6825C168.701 34.5048 168.37 34.31 168.051 34.0988C167.712 33.8799 167.407 33.6774 167.135 33.4424Z" fill="#2F2FC0"/>
<path d="M198.531 22.5163C198.574 19.5325 198.005 16.5711 196.856 13.8085C195.709 11.046 194.004 8.53899 191.849 6.43738C189.692 4.33574 187.126 2.68253 184.305 1.57649C181.484 0.470436 178.464 -0.0657796 175.427 -0.000140592C172.362 -0.0725069 169.313 0.464592 166.464 1.57888C163.616 2.69317 161.026 4.36165 158.85 6.48408C154.611 10.7774 152.24 16.5233 152.24 22.5042C152.24 28.4849 154.611 34.2309 158.85 38.5242C160.457 40.0956 162.296 41.4207 164.304 42.4552C162.348 40.8991 157.48 30.419 157.48 30.419C160.904 30.6377 164.223 31.6697 167.151 33.426C166.673 33.0539 166.221 32.6504 165.798 32.2183C163.348 29.5404 161.993 26.0675 161.993 22.4676C161.993 18.8677 163.348 15.3949 165.798 12.717C167.055 11.4736 168.55 10.4867 170.197 9.81327C171.844 9.13983 173.61 8.79311 175.394 8.79311C177.178 8.79311 178.945 9.13983 180.592 9.81327C182.239 10.4867 183.734 11.4736 184.991 12.717C187.475 15.3781 188.853 18.8572 188.853 22.4676C188.853 26.0781 187.475 29.5572 184.991 32.2183C183.769 33.4988 182.286 34.5106 180.637 35.1866C178.989 35.8629 177.213 36.1882 175.427 36.1412C173.212 36.1794 171.022 35.6723 169.057 34.6661L169.189 34.7552C172.686 37.3725 175.388 40.8787 177.003 44.895C182.863 44.665 188.397 42.1907 192.423 38.0019C196.448 33.8133 198.643 28.243 198.539 22.4839L198.531 22.5163Z" fill="#2F2FC0"/>
<path d="M169.157 34.7715L169.025 34.6824C168.352 34.327 167.714 33.912 167.119 33.4423C164.195 31.6884 160.882 30.6566 157.464 30.4351C157.464 30.4351 162.333 40.9153 164.288 42.4715C167.735 44.1778 171.552 45.0346 175.411 44.9678C175.948 44.9678 176.476 44.9678 176.996 44.9274C175.376 40.9022 172.665 37.3899 169.157 34.7715Z" fill="#2F2FC0"/>
<path d="M197.963 32.2507H230.779L226.967 40.745H207.328V49.6608H227.24V58.0902H207.328V75.7192H197.963V32.2507Z" fill="#2F3339"/>
<path d="M235.994 32.2507H268.81L264.998 40.745H245.359V49.6608H265.271V58.0902H245.334V75.7192H235.994V32.2507Z" fill="#2F3339"/>
</g>
</g>
<defs>
<clipPath id="clip0_70_26932">
<rect width="269" height="77" fill="white"/>
</clipPath>
</defs>
</svg>
